<svg width="216" height="86" viewBox="0 0 216 86" fill="none" xmlns="http://www.w3.org/2000/svg">
<path fill-rule="evenodd" clip-rule="evenodd" d="M55.655 1.89242L36.4573 15.6217L38.4161 17.7548L58.9632 3.06053C61.2988 3.99488 63.5333 5.12817 65.6458 6.43944L43.001 22.6339L44.9597 24.767L68.1948 8.15046C69.6942 9.23636 71.1208 10.4167 72.4658 11.6826L49.0782 28.4083L51.0369 30.5414L74.5181 13.7489C75.5332 14.8422 76.4921 15.9884 77.3903 17.1829L61.6937 28.4083L63.6525 30.5414L79.0403 19.5368C83.4419 26.2839 86 34.3432 86 43C86 66.7482 66.7482 86 43 86C19.2518 86 0 66.7482 0 43C0 19.2518 19.2518 0 43 0C47.4044 0 51.6541 0.662182 55.655 1.89242Z" fill="#441582"/>
<path d="M10.7302 57.5435V34.5035H15.0822V43.9755H25.3862V34.5035H29.7382V57.5435H25.3862V48.0395H15.0822V57.5435H10.7302ZM32.6302 57.5435L39.6702 34.5035H46.1662L53.2062 57.5435H48.7262L42.4542 37.2235H43.2862L37.1102 57.5435H32.6302ZM36.8542 52.7435V48.6795H49.0142V52.7435H36.8542ZM56.074 57.5435V34.5035H65.29C66.9327 34.5035 68.2607 34.8341 69.274 35.4955C70.2873 36.1461 71.0287 36.9675 71.498 37.9595C71.9673 38.9515 72.202 39.9541 72.202 40.9675C72.202 42.2581 71.9087 43.3301 71.322 44.1835C70.746 45.0368 69.9513 45.6075 68.938 45.8955V45.0955C70.378 45.3941 71.4553 46.0608 72.17 47.0955C72.8953 48.1301 73.258 49.2875 73.258 50.5675C73.258 51.9435 73.002 53.1541 72.49 54.1995C71.9887 55.2448 71.2207 56.0661 70.186 56.6635C69.1513 57.2501 67.85 57.5435 66.282 57.5435H56.074ZM60.49 53.4475H65.834C66.4207 53.4475 66.9433 53.3248 67.402 53.0795C67.8607 52.8235 68.218 52.4715 68.474 52.0235C68.7407 51.5648 68.874 51.0261 68.874 50.4075C68.874 49.8635 68.762 49.3781 68.538 48.9515C68.314 48.5248 67.9727 48.1888 67.514 47.9435C67.066 47.6875 66.506 47.5595 65.834 47.5595H60.49V53.4475ZM60.49 43.4955H65.226C65.7167 43.4955 66.154 43.4101 66.538 43.2395C66.922 43.0688 67.226 42.8075 67.45 42.4555C67.674 42.0928 67.786 41.6288 67.786 41.0635C67.786 40.3595 67.5673 39.7675 67.13 39.2875C66.6927 38.8075 66.058 38.5675 65.226 38.5675H60.49V43.4955ZM76.769 57.5435V34.5035H81.121V57.5435H76.769Z" fill="white"/>
<path d="M91.2617 57.5435V38.5675H83.9977V34.5035H102.878V38.5675H95.6137V57.5435H91.2617ZM114.825 58.0235C112.969 58.0235 111.337 57.6501 109.929 56.9035C108.521 56.1461 107.422 55.0848 106.633 53.7195C105.844 52.3541 105.449 50.7488 105.449 48.9035V34.5355L109.865 34.5035V48.8715C109.865 49.6288 109.993 50.3168 110.249 50.9355C110.505 51.5541 110.857 52.0875 111.305 52.5355C111.764 52.9835 112.292 53.3301 112.889 53.5755C113.497 53.8101 114.142 53.9275 114.825 53.9275C115.529 53.9275 116.18 53.8048 116.777 53.5595C117.385 53.3141 117.913 52.9675 118.361 52.5195C118.809 52.0715 119.156 51.5381 119.401 50.9195C119.657 50.3008 119.785 49.6181 119.785 48.8715V34.5035H124.201V48.9035C124.201 50.7488 123.806 52.3541 123.017 53.7195C122.228 55.0848 121.129 56.1461 119.721 56.9035C118.313 57.6501 116.681 58.0235 114.825 58.0235ZM126.099 57.5435L133.139 34.5035H139.635L146.675 57.5435H142.195L135.923 37.2235H136.755L130.579 57.5435H126.099ZM130.323 52.7435V48.6795H142.483V52.7435H130.323ZM149.863 57.5435V34.5035H154.215V53.4795H164.135V57.5435H149.863Z" fill="#441582"/>
</svg>
