<svg width="86" height="86" viewBox="0 0 86 86" fill="none" xmlns="http://www.w3.org/2000/svg">
<path fill-rule="evenodd" clip-rule="evenodd" d="M55.655 1.89242L36.4573 15.6217L38.4161 17.7548L58.9632 3.06053C61.2988 3.99488 63.5333 5.12817 65.6458 6.43944L43.001 22.6339L44.9597 24.767L68.1948 8.15046C69.6942 9.23636 71.1208 10.4167 72.4658 11.6826L49.0782 28.4083L51.0369 30.5414L74.5181 13.7489C75.5332 14.8422 76.4921 15.9884 77.3903 17.1829L61.6937 28.4083L63.6525 30.5414L79.0403 19.5368C83.4419 26.2839 86 34.3432 86 43C86 66.7482 66.7482 86 43 86C19.2518 86 0 66.7482 0 43C0 19.2518 19.2518 0 43 0C47.4044 0 51.6541 0.662182 55.655 1.89242Z" fill="#441582"/>
</svg>
