<svg width="420" height="455" viewBox="0 0 420 455" fill="none" xmlns="http://www.w3.org/2000/svg">
<path d="M372.077 225.153C372.077 225.153 372.077 218.631 363.803 209.495C355.529 200.36 350.208 195.141 350.208 195.141C350.208 195.141 346.066 210.152 353.755 219.288C361.444 228.423 372.077 236.913 372.077 236.913V225.153Z" fill="#633C97"/>
<path d="M360.071 265.91C360.071 265.91 360.071 259.389 351.797 250.253C343.523 241.117 338.202 235.898 338.202 235.898C338.202 235.898 334.06 250.909 341.749 260.055C349.438 269.201 360.071 277.681 360.071 277.681V265.91Z" fill="#633C97"/>
<path d="M371.558 236.267C371.558 236.267 372.18 229.777 381.29 221.656C390.4 213.535 396.148 208.973 396.148 208.973C396.148 208.973 398.832 224.353 390.316 232.556C381.8 240.758 370.406 247.936 370.406 247.936L371.558 236.267Z" fill="#633C97"/>
<path d="M357.053 284.407C357.053 284.407 358.288 278.03 368.113 271.006C377.938 263.982 384.132 260.106 384.132 260.106C384.132 260.106 385.33 275.743 376.08 282.9C366.831 290.057 354.824 295.891 354.824 295.891L357.053 284.407Z" fill="#633C97"/>
<path d="M359.773 336.884C359.773 336.884 359.773 330.363 368.057 321.227C376.34 312.092 381.643 306.873 381.643 306.873C381.643 306.873 385.784 321.873 378.142 330.999C370.499 340.125 359.811 348.625 359.811 348.625L359.773 336.884Z" fill="#633C97"/>
<path d="M359.643 349.701C359.643 349.701 360.479 343.242 353.468 332.896C346.457 322.55 341.851 316.552 341.851 316.552C341.851 316.552 335.824 330.763 342.259 341.006C348.695 351.25 358.129 361.329 358.129 361.329L359.643 349.701Z" fill="#633C97"/>
<path d="M351.48 387.66C351.48 387.66 351.48 381.139 359.755 372.003C368.029 362.867 373.35 357.648 373.35 357.648C373.35 357.648 377.482 372.659 369.802 381.795C362.123 390.931 351.48 399.421 351.48 399.421V387.66Z" fill="#633C97"/>
<path d="M357.007 422.081C357.007 422.081 355.512 415.765 361.418 404.65C367.324 393.535 371.28 386.953 371.28 386.953C371.28 386.953 378.709 400.282 373.388 411.305C368.067 422.327 359.7 433.473 359.7 433.473L357.007 422.081Z" fill="#633C97"/>
<path d="M372.828 223.481C372.407 230.276 371.651 237.039 370.563 243.742C367.285 262.404 359.113 274.503 355.844 291.298C352.575 308.093 361.964 329.872 359.447 351.517C356.93 373.162 349.297 385.21 351.479 399.657C353.662 414.104 365.409 454 365.409 454" stroke="#474242" stroke-linecap="round" stroke-linejoin="round"/>
<path d="M371.475 240.605L380.399 233.048" stroke="#474242" stroke-linecap="round" stroke-linejoin="round"/>
<path d="M371.891 231.909L368.158 224.578" stroke="#474242" stroke-linecap="round" stroke-linejoin="round"/>
<path d="M356.338 290.529C356.338 290.529 363.767 284.377 371.475 278.163" stroke="#474242" stroke-linecap="round" stroke-linejoin="round"/>
<path d="M360.071 277.681C360.071 277.681 353.849 264.218 346.801 255.287" stroke="#474242" stroke-linecap="round" stroke-linejoin="round"/>
<path d="M360.07 346.174C364.332 337.501 369.712 329.557 376.043 322.591" stroke="#474242" stroke-linecap="round" stroke-linejoin="round"/>
<path d="M358.64 355.331C356.373 349.443 353.668 343.774 350.552 338.382C346.196 331.286 345.574 330.374 345.574 330.374" stroke="#474242" stroke-linecap="round" stroke-linejoin="round"/>
<path d="M351.48 399.698C353.37 394.511 355.618 389.493 358.204 384.686C360.785 380.204 363.699 375.965 366.914 372.013" stroke="#474242" stroke-linecap="round" stroke-linejoin="round"/>
<path d="M359.699 433.442C359.699 433.442 358.826 425.629 361.937 418.995C365.048 412.361 368.576 403.615 370.025 400.21" stroke="#474242" stroke-linecap="round" stroke-linejoin="round"/>
<path d="M304.548 312.348C304.548 312.348 303.907 308.246 308.197 301.53C312.487 294.814 315.31 290.897 315.31 290.897C315.31 290.897 319.378 299.818 315.459 306.462C312.551 311.176 309.289 315.61 305.708 319.72L304.548 312.348Z" fill="#633C97"/>
<path d="M316.091 336.464C316.091 336.464 315.45 332.363 319.74 325.647C324.03 318.93 326.853 315.014 326.853 315.014C326.853 315.014 330.921 323.934 327.002 330.578C324.091 335.289 320.826 339.72 317.242 343.826L316.091 336.464Z" fill="#633C97"/>
<path d="M305.969 319.248C305.969 319.248 304.938 315.26 298.429 311.261C291.919 307.262 287.842 305.109 287.842 305.109C287.842 305.109 287.684 315.096 293.823 319.207C298.298 322.059 302.982 324.491 307.826 326.477L305.969 319.248Z" fill="#633C97"/>
<path d="M319.796 347.702C319.796 347.702 318.393 343.847 311.54 340.617C304.687 337.387 300.396 335.706 300.396 335.706C300.396 335.706 301.186 345.651 307.686 349.035C312.404 351.35 317.291 353.223 322.294 354.633L319.796 347.702Z" fill="#633C97"/>
<path d="M323.251 380.933C323.251 380.933 322.61 376.832 316.518 372.105C310.426 367.378 306.582 364.733 306.582 364.733C306.582 364.733 305.468 374.638 311.179 379.447C315.356 382.8 319.779 385.763 324.402 388.306L323.251 380.933Z" fill="#633C97"/>
<path d="M324.597 388.952C324.597 388.952 323.436 385.004 326.816 377.673C330.196 370.342 332.49 366.035 332.49 366.035C332.49 366.035 337.663 374.238 334.635 381.415C332.362 386.533 329.703 391.431 326.686 396.057L324.597 388.952Z" fill="#633C97"/>
<path d="M334.98 421.958C334.98 421.958 335.407 417.856 341.239 412.73C347.07 407.603 350.785 404.742 350.785 404.742C350.785 404.742 352.41 414.565 346.95 419.733C342.955 423.352 338.693 426.596 334.209 429.433L334.98 421.958Z" fill="#633C97"/>
<path d="M333.446 411.776C333.446 411.776 332.805 407.675 326.714 402.948C320.622 398.221 316.777 395.576 316.777 395.576C316.777 395.576 315.663 405.481 321.374 410.289C325.55 413.653 329.974 416.627 334.598 419.179L333.446 411.776Z" fill="#633C97"/>
<path d="M333.362 434.027C333.362 434.027 333.678 429.925 328.877 423.599C324.076 417.272 320.956 413.694 320.956 413.694C320.956 413.694 317.604 422.922 322.024 429.218C325.296 433.626 328.896 437.724 332.787 441.471L333.362 434.027Z" fill="#633C97"/>
<path d="M303.916 311.384C304.844 315.596 305.981 319.748 307.324 323.822C311.215 335.101 317.539 341.704 321.253 351.875C324.968 362.047 321.207 376.801 324.912 390.069C328.617 403.337 334.589 409.982 334.644 419.302C334.7 428.623 331.608 453.836 331.608 453.836" stroke="#474242" stroke-linecap="round" stroke-linejoin="round"/>
<path d="M306.443 321.966L300.109 318.295" stroke="#474242" stroke-linecap="round" stroke-linejoin="round"/>
<path d="M305.328 316.552L306.953 311.518" stroke="#474242" stroke-linecap="round" stroke-linejoin="round"/>
<path d="M320.846 351.506C320.846 351.506 315.562 348.522 310.139 345.559" stroke="#474242" stroke-linecap="round" stroke-linejoin="round"/>
<path d="M317.242 343.826C317.242 343.826 319.814 334.598 323.362 328.19" stroke="#474242" stroke-linecap="round" stroke-linejoin="round"/>
<path d="M323.975 386.789C320.451 381.862 316.297 377.527 311.643 373.92" stroke="#474242" stroke-linecap="round" stroke-linejoin="round"/>
<path d="M325.785 392.366C326.628 388.403 327.768 384.524 329.193 380.77C331.227 375.797 331.524 375.141 331.524 375.141" stroke="#474242" stroke-linecap="round" stroke-linejoin="round"/>
<path d="M334.338 426.356C334.338 426.356 338.535 420.676 341.145 418.554C342.721 417.271 344.202 415.851 345.574 414.309" stroke="#474242" stroke-linecap="round" stroke-linejoin="round"/>
<path d="M334.626 419.302C332.928 416.277 331.025 413.397 328.933 410.689C326.871 408.208 324.629 405.917 322.229 403.84" stroke="#474242" stroke-linecap="round" stroke-linejoin="round"/>
<path d="M332.788 441.47C332.587 438.319 331.625 435.285 330.002 432.683C327.402 428.889 324.338 423.855 323.084 421.876" stroke="#474242" stroke-linecap="round" stroke-linejoin="round"/>
<path d="M55.5273 225.153C55.5273 225.153 55.5273 218.631 63.8014 209.495C72.0755 200.36 77.3965 195.141 77.3965 195.141C77.3965 195.141 81.5382 210.152 73.8585 219.288C66.1787 228.423 55.5273 236.913 55.5273 236.913V225.153Z" fill="#633C97"/>
<path d="M67.543 265.91C67.543 265.91 67.543 259.389 75.817 250.253C84.0911 241.117 89.4121 235.898 89.4121 235.898C89.4121 235.898 93.5445 250.909 85.8648 260.055C78.185 269.201 67.543 277.681 67.543 277.681V265.91Z" fill="#633C97"/>
<path d="M56.0472 236.267C56.0472 236.267 55.425 229.777 46.3245 221.656C37.2239 213.535 31.4664 208.973 31.4664 208.973C31.4664 208.973 28.792 224.353 37.3075 232.556C45.823 240.758 57.208 247.936 57.208 247.936L56.0472 236.267Z" fill="#633C97"/>
<path d="M70.5617 284.407C70.5617 284.407 69.3173 278.03 59.4924 271.006C49.6676 263.982 43.4736 260.106 43.4736 260.106C43.4736 260.106 42.285 275.743 51.5248 282.9C60.7646 290.057 72.7904 295.891 72.7904 295.891L70.5617 284.407Z" fill="#633C97"/>
<path d="M67.8307 336.884C67.8307 336.884 67.8307 330.363 59.5567 321.227C51.2826 312.092 45.9616 306.873 45.9616 306.873C45.9616 306.873 41.8199 321.873 49.5089 330.999C57.198 340.125 67.8307 348.635 67.8307 348.635V336.884Z" fill="#633C97"/>
<path d="M67.9791 349.701C67.9791 349.701 67.134 343.242 74.1545 332.896C81.1749 322.55 85.7623 316.552 85.7623 316.552C85.7623 316.552 91.7891 330.763 85.363 341.006C78.9369 351.25 69.4927 361.329 69.4927 361.329L67.9791 349.701Z" fill="#633C97"/>
<path d="M76.1341 387.66C76.1341 387.66 76.1341 381.139 67.8508 372.003C59.5674 362.867 54.2649 357.648 54.2649 357.648C54.2649 357.648 50.1233 372.649 57.7659 381.785C65.4085 390.921 76.097 399.41 76.097 399.41L76.1341 387.66Z" fill="#633C97"/>
<path d="M70.6073 422.081C70.6073 422.081 72.1024 415.765 66.187 404.65C60.2717 393.535 56.3343 386.953 56.3343 386.953C56.3343 386.953 48.9053 400.282 54.2263 411.305C59.5473 422.327 67.905 433.473 67.905 433.473L70.6073 422.081Z" fill="#633C97"/>
<path d="M54.7852 223.481C55.2017 230.276 55.9582 237.04 57.051 243.742C60.3198 262.404 68.501 274.503 71.7698 291.298C75.0385 308.093 65.6501 329.872 68.1667 351.506C70.6833 373.141 78.3073 385.199 76.1343 399.646C73.9613 414.094 62.2049 453.99 62.2049 453.99" stroke="#474242" stroke-linecap="round" stroke-linejoin="round"/>
<path d="M56.1316 240.605L47.2168 233.048" stroke="#474242" stroke-linecap="round" stroke-linejoin="round"/>
<path d="M55.7227 231.909L59.4557 224.578" stroke="#474242" stroke-linecap="round" stroke-linejoin="round"/>
<path d="M71.2675 290.529C71.2675 290.529 63.8385 284.377 56.1309 278.163" stroke="#474242" stroke-linecap="round" stroke-linejoin="round"/>
<path d="M67.543 277.681C67.543 277.681 73.7555 264.218 80.8131 255.287" stroke="#474242" stroke-linecap="round" stroke-linejoin="round"/>
<path d="M67.5334 346.174C63.2734 337.502 57.8963 329.558 51.5703 322.591" stroke="#474242" stroke-linecap="round" stroke-linejoin="round"/>
<path d="M68.9922 355.331C71.259 349.443 73.9644 343.774 77.0805 338.382C81.4358 331.286 82.058 330.374 82.058 330.374" stroke="#474242" stroke-linecap="round" stroke-linejoin="round"/>
<path d="M76.133 399.698C74.2382 394.512 71.9875 389.494 69.4005 384.686C66.824 380.202 63.9135 375.963 60.6992 372.013" stroke="#474242" stroke-linecap="round" stroke-linejoin="round"/>
<path d="M67.9049 433.442C67.9049 433.442 68.7779 425.629 65.6762 418.995C62.5746 412.361 59.0365 403.615 57.5879 400.21" stroke="#474242" stroke-linecap="round" stroke-linejoin="round"/>
<path d="M123.057 312.348C123.057 312.348 123.698 308.246 119.407 301.53C115.117 294.814 112.294 290.897 112.294 290.897C112.294 290.897 108.227 299.818 112.145 306.462C115.056 311.176 118.321 315.611 121.905 319.72L123.057 312.348Z" fill="#633C97"/>
<path d="M111.524 336.464C111.524 336.464 112.164 332.363 107.874 325.647C103.584 318.93 100.761 315.014 100.761 315.014C100.761 315.014 96.6934 323.934 100.612 330.578C103.522 335.287 106.783 339.719 110.363 343.826L111.524 336.464Z" fill="#633C97"/>
<path d="M121.644 319.248C121.644 319.248 122.666 315.26 129.176 311.261C135.685 307.262 139.762 305.109 139.762 305.109C139.762 305.109 139.929 315.096 133.782 319.207C129.309 322.058 124.628 324.49 119.787 326.477L121.644 319.248Z" fill="#633C97"/>
<path d="M107.809 347.702C107.809 347.702 109.211 343.847 116.064 340.617C122.917 337.387 127.208 335.706 127.208 335.706C127.208 335.706 126.418 345.651 119.918 349.035C115.2 351.35 110.313 353.223 105.311 354.633L107.809 347.702Z" fill="#633C97"/>
<path d="M104.363 380.933C104.363 380.933 105.004 376.832 111.087 372.105C117.169 367.378 121.023 364.733 121.023 364.733C121.023 364.733 122.147 374.638 116.38 379.447C112.204 382.803 107.781 385.766 103.156 388.306L104.363 380.933Z" fill="#633C97"/>
<path d="M103.017 388.952C103.017 388.952 104.177 385.004 100.797 377.673C97.4169 370.342 95.1232 366.035 95.1232 366.035C95.1232 366.035 89.9414 374.238 92.9688 381.415C95.2473 386.532 97.9093 391.43 100.927 396.057L103.017 388.952Z" fill="#633C97"/>
<path d="M92.6267 421.958C92.6267 421.958 92.1995 417.856 86.3678 412.73C80.536 407.603 76.8307 404.742 76.8307 404.742C76.8307 404.742 75.1964 414.565 80.6567 419.733C84.6518 423.352 88.9135 426.596 93.3975 429.433L92.6267 421.958Z" fill="#633C97"/>
<path d="M94.1671 411.776C94.1671 411.776 94.8078 407.675 100.89 402.948C106.973 398.221 110.827 395.576 110.827 395.576C110.827 395.576 111.95 405.481 106.23 410.289C102.07 413.653 97.6621 416.627 93.0527 419.179L94.1671 411.776Z" fill="#633C97"/>
<path d="M94.2507 434.027C94.2507 434.027 93.9257 429.925 98.7267 423.599C103.528 417.272 106.648 413.694 106.648 413.694C106.648 413.694 110.01 422.922 105.58 429.218C102.308 433.626 98.7075 437.724 94.8172 441.471L94.2507 434.027Z" fill="#633C97"/>
<path d="M123.697 311.384C122.762 315.595 121.622 319.747 120.28 323.822C116.398 335.101 110.065 341.704 106.35 351.875C102.636 362.047 106.35 376.801 102.682 390.069C99.0141 403.337 93.0523 409.951 92.9873 419.302C92.9223 428.653 96.0239 453.836 96.0239 453.836" stroke="#474242" stroke-linecap="round" stroke-linejoin="round"/>
<path d="M121.162 321.966L127.495 318.295" stroke="#474242" stroke-linecap="round" stroke-linejoin="round"/>
<path d="M122.276 316.552L120.66 311.518" stroke="#474242" stroke-linecap="round" stroke-linejoin="round"/>
<path d="M106.76 351.506C106.76 351.506 112.053 348.522 117.467 345.559" stroke="#474242" stroke-linecap="round" stroke-linejoin="round"/>
<path d="M110.362 343.826C110.362 343.826 107.79 334.598 104.242 328.19" stroke="#474242" stroke-linecap="round" stroke-linejoin="round"/>
<path d="M103.629 386.789C107.156 381.865 111.31 377.53 115.961 373.92" stroke="#474242" stroke-linecap="round" stroke-linejoin="round"/>
<path d="M101.819 392.366C100.976 388.403 99.8362 384.524 98.4109 380.77C96.3772 375.797 96.0801 375.141 96.0801 375.141" stroke="#474242" stroke-linecap="round" stroke-linejoin="round"/>
<path d="M93.2755 426.356C93.2755 426.356 89.0781 420.676 86.4593 418.554C84.8872 417.269 83.4092 415.85 82.0391 414.309" stroke="#474242" stroke-linecap="round" stroke-linejoin="round"/>
<path d="M92.9883 419.302C94.6826 416.274 96.5857 413.394 98.6808 410.689C100.738 408.207 102.978 405.916 105.376 403.84" stroke="#474242" stroke-linecap="round" stroke-linejoin="round"/>
<path d="M94.8164 441.47C95.0226 438.32 95.9841 435.287 97.6023 432.683C100.212 428.889 103.276 423.855 104.521 421.876" stroke="#474242" stroke-linecap="round" stroke-linejoin="round"/>
<path d="M298.131 453.528C298.521 444.423 298.632 423.455 293.005 403.891C285.576 377.96 270.643 342.985 267.291 337.244C263.939 331.502 267.291 324.939 267.291 324.939C271.724 310.407 274.601 295.352 275.862 280.08C275.862 280.08 277.719 280.911 282.938 286.232C288.157 291.554 335.09 323.391 342.538 325.042C349.985 326.693 361.064 322.714 363.673 316.952C366.283 311.189 314.623 251.258 300.833 236.442C287.043 221.625 253.473 224.137 247.901 220.395C242.329 216.652 241.93 211.751 245.663 196.115C249.396 180.478 261.691 166.072 263.177 153.317C264.663 140.561 256.101 115.871 236.72 103.075C217.34 90.2782 203.559 97.7222 203.559 97.7222C203.559 97.7222 192.75 107.976 191.255 115.83C189.76 123.684 190.512 126.524 185.683 129.816C180.854 133.107 173.388 131.866 174.131 134.758C174.874 137.649 176.74 144.632 180.464 145.011C180.464 145.011 175.245 150.364 176.369 152.835C177.047 154.375 177.427 156.055 177.483 157.767C177.483 157.767 176.369 161.058 177.483 163.529C178.197 165.131 178.817 166.782 179.341 168.471C179.341 168.471 180.455 176.674 186.045 178.345C191.636 180.017 201.702 179.248 201.702 179.248C201.702 179.248 200.578 192.833 198.35 206.409C196.121 219.985 190.521 218.344 175.608 217.524C160.694 216.704 144.675 222.876 138.342 228.628C132.008 234.381 99.5529 245.454 99.5529 245.454C99.5529 245.454 92.4675 212.941 91.7246 209.649C90.9817 206.358 90.2667 192.372 90.2667 184.139C90.2667 175.905 92.8761 161.499 93.619 154.506C94.3619 147.513 76.848 145.452 76.0958 148.744C75.3436 152.035 70.8862 194.423 67.5246 211.29C64.1629 228.157 66.0388 249.556 65.6673 265.192C65.2959 280.829 70.134 287.832 76.0958 287.012C82.0576 286.191 101.447 284.13 120.456 282.48C139.465 280.829 156.979 270.175 156.979 270.175L159.589 270.586C159.589 270.586 149.513 287.022 150.627 297.716C151.742 308.411 158.827 315.824 161.065 318.705C162.921 321.414 164.544 324.307 165.913 327.349C165.913 327.349 167.77 339.653 164.418 344.216C161.065 348.779 149.56 370.967 143.923 396.509C139.549 416.462 140.877 442.957 141.666 453.559" fill="#CCCCCC"/>
<mask id="mask0_320_7430" style="mask-type:luminance" maskUnits="userSpaceOnUse" x="65" y="95" width="299" height="359">
<path d="M298.131 453.528C298.521 444.423 298.632 423.455 293.005 403.891C285.576 377.96 270.643 342.985 267.291 337.244C263.939 331.502 267.291 324.939 267.291 324.939C271.724 310.407 274.601 295.352 275.862 280.08C275.862 280.08 277.719 280.911 282.938 286.232C288.157 291.554 335.09 323.391 342.538 325.042C349.985 326.693 361.064 322.714 363.673 316.952C366.283 311.189 314.623 251.258 300.833 236.442C287.043 221.625 253.473 224.137 247.901 220.395C242.329 216.652 241.93 211.751 245.663 196.115C249.396 180.478 261.691 166.072 263.177 153.317C264.663 140.561 256.101 115.871 236.72 103.075C217.34 90.2782 203.559 97.7222 203.559 97.7222C203.559 97.7222 192.75 107.976 191.255 115.83C189.76 123.684 190.512 126.524 185.683 129.816C180.854 133.107 173.388 131.866 174.131 134.758C174.874 137.649 176.74 144.632 180.464 145.011C180.464 145.011 175.245 150.364 176.369 152.835C177.047 154.375 177.427 156.055 177.483 157.767C177.483 157.767 176.369 161.058 177.483 163.529C178.197 165.131 178.817 166.782 179.341 168.471C179.341 168.471 180.455 176.674 186.045 178.345C191.636 180.017 201.702 179.248 201.702 179.248C201.702 179.248 200.578 192.833 198.35 206.409C196.121 219.985 190.521 218.344 175.608 217.524C160.694 216.704 144.675 222.876 138.342 228.628C132.008 234.381 99.5529 245.454 99.5529 245.454C99.5529 245.454 92.4675 212.941 91.7246 209.649C90.9817 206.358 90.2667 192.372 90.2667 184.139C90.2667 175.905 92.8761 161.499 93.619 154.506C94.3619 147.513 76.848 145.452 76.0958 148.744C75.3436 152.035 70.8862 194.423 67.5246 211.29C64.1629 228.157 66.0388 249.556 65.6673 265.192C65.2959 280.829 70.134 287.832 76.0958 287.012C82.0576 286.191 101.447 284.13 120.456 282.48C139.465 280.829 156.979 270.175 156.979 270.175L159.589 270.586C159.589 270.586 149.513 287.022 150.627 297.716C151.742 308.411 158.827 315.824 161.065 318.705C162.921 321.414 164.544 324.307 165.913 327.349C165.913 327.349 167.77 339.653 164.418 344.216C161.065 348.779 149.56 370.967 143.923 396.509C139.549 416.462 140.877 442.957 141.666 453.559" fill="white"/>
</mask>
<g mask="url(#mask0_320_7430)">
<g opacity="0.2">
<path d="M141.573 248.11C134.989 246.992 119.286 262.649 105.617 270.473C91.9473 278.296 79.7823 276.071 71.6847 274.954C69.7242 274.684 67.8078 274.111 65.9922 273.252C67.1808 283.238 71.2668 287.678 76.0864 287.022C82.0574 286.191 101.438 284.141 120.447 282.49C139.456 280.839 156.97 270.186 156.97 270.186L159.579 270.596C159.579 270.596 158.019 273.149 156.199 276.881C159.914 275.189 162.848 273.877 162.848 273.877C162.848 273.877 148.157 249.228 141.573 248.11Z" fill="black"/>
<path d="M300.832 236.401C294.202 229.285 283.03 226.147 272.574 224.424C261.263 222.538 250.807 222.282 247.9 220.323C242.329 216.622 241.929 211.679 245.662 196.043C249.395 180.406 261.69 166 263.176 153.245C264.662 140.489 256.1 115.799 236.72 103.003C217.339 90.2064 203.558 97.7222 203.558 97.7222C203.558 97.7222 202.035 99.168 200.057 101.383C202.843 108.847 212.733 134.86 220.079 142.971C228.696 152.476 226.161 164.78 219.577 169.251C212.993 173.721 186.035 178.376 186.035 178.376L222.614 178.202L234.259 208.398C234.259 208.398 218.565 235.806 227.675 248.664C236.785 261.522 267.188 274.39 284.405 253.144C286.621 250.239 288.436 246.988 289.791 243.496C301.213 256.18 315.402 271.98 325.933 283.895C342.286 302.351 352.975 313.948 356.791 322.94C359.976 321.433 362.577 319.341 363.672 316.911C366.282 311.159 314.622 251.217 300.832 236.401Z" fill="black"/>
<path d="M267.291 337.223C263.929 331.46 267.291 324.918 267.291 324.918C271.724 310.386 274.6 295.331 275.862 280.059C276.057 280.16 276.246 280.273 276.428 280.398C269.092 273.969 258.06 264.751 257.057 266.607C255.534 269.396 257.559 280.582 258.571 295.686C259.583 310.789 247.427 331.47 254.522 346.574C261.617 361.677 284.916 379.569 294.537 410.33L294.871 411.355C294.332 408.864 293.71 406.372 293.014 403.901C285.547 377.96 270.643 342.985 267.291 337.223Z" fill="black"/>
</g>
</g>
<path d="M298.131 453.528C298.521 444.423 298.632 423.455 293.005 403.891C285.576 377.96 270.643 342.985 267.291 337.244C263.939 331.502 267.291 324.939 267.291 324.939C271.724 310.407 274.601 295.352 275.862 280.08C275.862 280.08 277.719 280.911 282.938 286.232C288.157 291.554 335.09 323.391 342.538 325.042C349.985 326.693 361.064 322.714 363.673 316.952C366.283 311.189 314.623 251.258 300.833 236.442C287.043 221.625 253.473 224.137 247.901 220.395C242.329 216.652 241.93 211.751 245.663 196.115C249.396 180.478 261.691 166.072 263.177 153.317C264.663 140.561 256.101 115.871 236.72 103.075C217.34 90.2782 203.559 97.7222 203.559 97.7222C203.559 97.7222 192.75 107.976 191.255 115.83C189.76 123.684 190.512 126.524 185.683 129.816C180.854 133.107 173.388 131.866 174.131 134.758C174.874 137.649 176.74 144.632 180.464 145.011C180.464 145.011 175.245 150.364 176.369 152.835C177.047 154.375 177.427 156.055 177.483 157.767C177.483 157.767 176.369 161.058 177.483 163.529C178.197 165.131 178.817 166.782 179.341 168.471C179.341 168.471 180.455 176.674 186.045 178.345C191.636 180.017 201.702 179.248 201.702 179.248C201.702 179.248 200.578 192.833 198.35 206.409C196.121 219.985 190.521 218.344 175.608 217.524C160.694 216.704 144.675 222.876 138.342 228.628C132.008 234.381 99.5529 245.454 99.5529 245.454C99.5529 245.454 92.4675 212.941 91.7246 209.649C90.9817 206.358 90.2667 192.372 90.2667 184.139C90.2667 175.905 92.8761 161.499 93.619 154.506C94.3619 147.513 76.848 145.452 76.0958 148.744C75.3436 152.035 70.8862 194.423 67.5246 211.29C64.1629 228.157 66.0388 249.556 65.6673 265.192C65.2959 280.829 70.134 287.832 76.0958 287.012C82.0576 286.191 101.447 284.13 120.456 282.48C139.465 280.829 156.979 270.175 156.979 270.175L159.589 270.586C159.589 270.586 149.513 287.022 150.627 297.716C151.742 308.411 158.827 315.824 161.065 318.705C162.921 321.414 164.544 324.307 165.913 327.349C165.913 327.349 167.77 339.653 164.418 344.216C161.065 348.779 149.56 370.967 143.923 396.509C139.549 416.462 140.877 442.957 141.666 453.559" stroke="#D3D2D2" stroke-linecap="round" stroke-linejoin="round"/>
<path d="M196.465 129.498L194.088 131.467C194.088 131.467 197.059 138.019 205.064 131.139C205.064 131.139 199.427 131.467 196.465 129.498Z" fill="#474242" stroke="#474242" stroke-linecap="round" stroke-linejoin="round"/>
<path d="M197.357 117.727C197.357 117.727 202.4 112.159 208.631 121.326" stroke="#474242" stroke-width="2" stroke-linecap="round" stroke-linejoin="round"/>
<path d="M195.277 139.331C198.266 138.357 201.431 138.244 204.471 139.003" stroke="#474242" stroke-width="0.5" stroke-linecap="round" stroke-linejoin="round"/>
<path d="M197.059 140.961C199.902 140.389 202.815 140.389 205.658 140.961" stroke="#474242" stroke-width="0.5" stroke-linecap="round" stroke-linejoin="round"/>
<path d="M177.271 225.245L204.192 230.751" stroke="#474242" stroke-linecap="round" stroke-linejoin="round"/>
<path d="M238.096 228.547L216.152 230.751" stroke="#474242" stroke-linecap="round" stroke-linejoin="round"/>
<path d="M262.528 269.837L275.863 280.019L260.531 274.79" stroke="#474242" stroke-linecap="round" stroke-linejoin="round"/>
<path d="M156.97 270.145L143.365 258.825" stroke="#474242" stroke-linecap="round" stroke-linejoin="round"/>
<path d="M99.5531 245.455C99.5531 245.455 94.9842 255.524 86.5059 259.932" stroke="#474242" stroke-linecap="round" stroke-linejoin="round"/>
<path d="M178.622 144.783L167.547 143.088L165.961 155.722L177.036 157.417L178.622 144.783Z" fill="white" stroke="#474242" stroke-linecap="round" stroke-linejoin="round"/>
<path d="M162.208 128.77L143.107 125.848C142.881 125.691 142.628 125.59 142.364 125.55C141.85 125.471 141.33 125.62 140.915 125.964C140.501 126.308 140.227 126.819 140.154 127.386L139.996 128.709H139.81L139.977 127.386C140.012 127.105 139.996 126.82 139.931 126.545C139.866 126.271 139.752 126.014 139.597 125.789C139.442 125.563 139.248 125.373 139.026 125.23C138.805 125.087 138.56 124.994 138.306 124.956C138.051 124.917 137.793 124.935 137.544 125.007C137.296 125.079 137.063 125.204 136.859 125.375C136.655 125.547 136.483 125.761 136.353 126.006C136.224 126.25 136.139 126.521 136.105 126.801L135.938 128.124H135.761L135.919 126.801C135.954 126.521 135.939 126.236 135.875 125.963C135.811 125.689 135.698 125.432 135.544 125.206C135.389 124.981 135.196 124.791 134.975 124.647C134.755 124.504 134.51 124.41 134.257 124.371C133.99 124.329 133.717 124.35 133.458 124.433L105.367 120.137C105.139 119.978 104.882 119.877 104.615 119.839C104.361 119.8 104.103 119.817 103.855 119.888C103.607 119.959 103.375 120.083 103.17 120.254C102.966 120.424 102.794 120.637 102.664 120.881C102.534 121.125 102.449 121.395 102.414 121.675L102.247 122.997H102.061L102.228 121.675C102.27 121.391 102.259 121.102 102.198 120.823C102.136 120.544 102.025 120.282 101.87 120.051C101.715 119.821 101.52 119.626 101.297 119.48C101.073 119.334 100.825 119.239 100.568 119.2C100.31 119.161 100.048 119.179 99.7972 119.253C99.5462 119.328 99.3112 119.457 99.106 119.633C98.9008 119.809 98.7296 120.029 98.6024 120.279C98.4752 120.529 98.3946 120.805 98.3653 121.09L98.1981 122.403H98.0124L98.1796 121.08C98.2483 120.513 98.1111 119.939 97.7979 119.484C97.4847 119.029 97.0209 118.729 96.508 118.65C96.244 118.608 95.9747 118.629 95.7187 118.711L67.702 114.313C66.7812 114.171 65.8442 114.231 64.9444 114.489C64.0447 114.747 63.1998 115.199 62.4582 115.818C61.7165 116.437 61.0926 117.211 60.622 118.096C60.1515 118.982 59.8435 119.961 59.7158 120.977L56.7442 144.622C56.4876 146.676 56.9802 148.759 58.1138 150.413C59.2474 152.066 60.9292 153.155 62.7896 153.44L90.5555 157.695C90.8372 157.953 91.1778 158.119 91.5399 158.177C91.7935 158.216 92.0517 158.2 92.2996 158.129C92.5474 158.057 92.7802 157.933 92.9846 157.763C93.1889 157.592 93.3609 157.379 93.4907 157.135C93.6204 156.891 93.7054 156.622 93.7407 156.342L93.9822 154.404H94.1679L93.9264 156.342C93.8852 156.625 93.8957 156.915 93.9572 157.193C94.0188 157.472 94.1302 157.735 94.2849 157.965C94.4396 158.196 94.6345 158.39 94.8581 158.536C95.0818 158.682 95.3296 158.778 95.5871 158.817C95.8446 158.856 96.1066 158.837 96.3576 158.763C96.6086 158.689 96.8436 158.559 97.0488 158.383C97.254 158.207 97.4252 157.988 97.5524 157.737C97.6796 157.487 97.7602 157.211 97.7895 156.926L98.031 154.998H98.2167L97.9753 156.926C97.9399 157.206 97.9548 157.491 98.0192 157.765C98.0836 158.039 98.1962 158.296 98.3505 158.521C98.5049 158.747 98.698 158.937 98.9188 159.08C99.1396 159.223 99.3838 159.317 99.6375 159.356C100.001 159.416 100.373 159.355 100.705 159.182L128.341 163.468C128.605 163.719 128.926 163.885 129.27 163.95C129.524 163.99 129.782 163.975 130.031 163.904C130.279 163.834 130.512 163.709 130.717 163.539C130.922 163.368 131.094 163.154 131.223 162.91C131.352 162.665 131.437 162.395 131.471 162.114L131.722 160.187H131.898L131.657 162.125C131.622 162.405 131.637 162.691 131.703 162.965C131.768 163.239 131.881 163.496 132.037 163.722C132.192 163.948 132.386 164.137 132.607 164.28C132.829 164.423 133.074 164.516 133.328 164.555C133.582 164.593 133.841 164.576 134.089 164.504C134.337 164.432 134.57 164.307 134.775 164.135C134.979 163.964 135.151 163.75 135.28 163.505C135.41 163.26 135.494 162.99 135.529 162.709L135.77 160.792H135.956L135.705 162.719C135.637 163.286 135.774 163.86 136.087 164.315C136.4 164.771 136.864 165.07 137.377 165.149C137.741 165.209 138.112 165.149 138.445 164.975L157.287 167.856C158.207 167.998 159.144 167.938 160.044 167.68C160.944 167.422 161.789 166.97 162.531 166.351C163.272 165.732 163.896 164.958 164.367 164.073C164.837 163.187 165.145 162.208 165.273 161.192L168.245 137.547C168.488 135.501 167.991 133.432 166.861 131.788C165.73 130.145 164.059 129.06 162.208 128.77Z" fill="white"/>
<mask id="mask1_320_7430" style="mask-type:luminance" maskUnits="userSpaceOnUse" x="56" y="114" width="113" height="54">
<path d="M162.208 128.77L143.107 125.848C142.881 125.691 142.628 125.59 142.364 125.55C141.85 125.471 141.33 125.62 140.915 125.964C140.501 126.308 140.227 126.819 140.154 127.386L139.996 128.709H139.81L139.977 127.386C140.012 127.105 139.996 126.82 139.931 126.545C139.866 126.271 139.752 126.014 139.597 125.789C139.442 125.563 139.248 125.373 139.026 125.23C138.805 125.087 138.56 124.994 138.306 124.956C138.051 124.917 137.793 124.935 137.544 125.007C137.296 125.079 137.063 125.204 136.859 125.375C136.655 125.547 136.483 125.761 136.353 126.006C136.224 126.25 136.139 126.521 136.105 126.801L135.938 128.124H135.761L135.919 126.801C135.954 126.521 135.939 126.236 135.875 125.963C135.811 125.689 135.698 125.432 135.544 125.206C135.389 124.981 135.196 124.791 134.975 124.647C134.755 124.504 134.51 124.41 134.257 124.371C133.99 124.329 133.717 124.35 133.458 124.433L105.367 120.137C105.139 119.978 104.882 119.877 104.615 119.839C104.361 119.8 104.103 119.817 103.855 119.888C103.607 119.959 103.375 120.083 103.17 120.254C102.966 120.424 102.794 120.637 102.664 120.881C102.534 121.125 102.449 121.395 102.414 121.675L102.247 122.997H102.061L102.228 121.675C102.27 121.391 102.259 121.102 102.198 120.823C102.136 120.544 102.025 120.282 101.87 120.051C101.715 119.821 101.52 119.626 101.297 119.48C101.073 119.334 100.825 119.239 100.568 119.2C100.31 119.161 100.048 119.179 99.7972 119.253C99.5462 119.328 99.3112 119.457 99.106 119.633C98.9008 119.809 98.7296 120.029 98.6024 120.279C98.4752 120.529 98.3946 120.805 98.3653 121.09L98.1981 122.403H98.0124L98.1796 121.08C98.2483 120.513 98.1111 119.939 97.7979 119.484C97.4847 119.029 97.0209 118.729 96.508 118.65C96.244 118.608 95.9747 118.629 95.7187 118.711L67.702 114.313C66.7812 114.171 65.8442 114.231 64.9444 114.489C64.0447 114.747 63.1998 115.199 62.4582 115.818C61.7165 116.437 61.0926 117.211 60.622 118.096C60.1515 118.982 59.8435 119.961 59.7158 120.977L56.7442 144.622C56.4876 146.676 56.9802 148.759 58.1138 150.413C59.2474 152.066 60.9292 153.155 62.7896 153.44L90.5555 157.695C90.8372 157.953 91.1778 158.119 91.5399 158.177C91.7935 158.216 92.0517 158.2 92.2996 158.129C92.5474 158.057 92.7802 157.933 92.9846 157.763C93.1889 157.592 93.3609 157.379 93.4907 157.135C93.6204 156.891 93.7054 156.622 93.7407 156.342L93.9822 154.404H94.1679L93.9264 156.342C93.8852 156.625 93.8957 156.915 93.9572 157.193C94.0188 157.472 94.1302 157.735 94.2849 157.965C94.4396 158.196 94.6345 158.39 94.8581 158.536C95.0818 158.682 95.3296 158.778 95.5871 158.817C95.8446 158.856 96.1066 158.837 96.3576 158.763C96.6086 158.689 96.8436 158.559 97.0488 158.383C97.254 158.207 97.4252 157.988 97.5524 157.737C97.6796 157.487 97.7602 157.211 97.7895 156.926L98.031 154.998H98.2167L97.9753 156.926C97.9399 157.206 97.9548 157.491 98.0192 157.765C98.0836 158.039 98.1962 158.296 98.3505 158.521C98.5049 158.747 98.698 158.937 98.9188 159.08C99.1396 159.223 99.3838 159.317 99.6375 159.356C100.001 159.416 100.373 159.355 100.705 159.182L128.341 163.468C128.605 163.719 128.926 163.885 129.27 163.95C129.524 163.99 129.782 163.975 130.031 163.904C130.279 163.834 130.512 163.709 130.717 163.539C130.922 163.368 131.094 163.154 131.223 162.91C131.352 162.665 131.437 162.395 131.471 162.114L131.722 160.187H131.898L131.657 162.125C131.622 162.405 131.637 162.691 131.703 162.965C131.768 163.239 131.881 163.496 132.037 163.722C132.192 163.948 132.386 164.137 132.607 164.28C132.829 164.423 133.074 164.516 133.328 164.555C133.582 164.593 133.841 164.576 134.089 164.504C134.337 164.432 134.57 164.307 134.775 164.135C134.979 163.964 135.151 163.75 135.28 163.505C135.41 163.26 135.494 162.99 135.529 162.709L135.77 160.792H135.956L135.705 162.719C135.637 163.286 135.774 163.86 136.087 164.315C136.4 164.771 136.864 165.07 137.377 165.149C137.741 165.209 138.112 165.149 138.445 164.975L157.287 167.856C158.207 167.998 159.144 167.938 160.044 167.68C160.944 167.422 161.789 166.97 162.531 166.351C163.272 165.732 163.896 164.958 164.367 164.073C164.837 163.187 165.145 162.208 165.273 161.192L168.245 137.547C168.488 135.501 167.991 133.432 166.861 131.788C165.73 130.145 164.059 129.06 162.208 128.77Z" fill="white"/>
</mask>
<g mask="url(#mask1_320_7430)">
<path d="M57.8672 142.91L123.8 125.13L158.159 130.257C160.17 130.556 161.992 131.721 163.227 133.498C164.462 135.275 165.011 137.52 164.752 139.742L162.616 157.942C162.486 159.06 162.154 160.139 161.641 161.114C161.127 162.089 160.442 162.941 159.627 163.621C158.811 164.3 157.881 164.792 156.89 165.069C155.9 165.345 154.869 165.401 153.859 165.232L66.4384 150.59C64.52 150.268 62.7142 149.386 61.2075 148.036C59.7007 146.686 58.5476 144.916 57.8672 142.91Z" fill="#633C97"/>
<path d="M76.0586 146.519C76.0586 146.519 80.5439 143.771 83.4876 142.12C86.4314 140.47 97.9464 139.916 97.9464 139.916L107.92 125.048" stroke="#474242" stroke-linecap="round" stroke-linejoin="round"/>
<path d="M126.911 131.662L119.436 150.928" stroke="#474242" stroke-linecap="round" stroke-linejoin="round"/>
</g>
<path d="M162.208 128.77L143.107 125.848C142.881 125.691 142.628 125.59 142.364 125.55C141.85 125.471 141.33 125.62 140.915 125.964C140.501 126.308 140.227 126.819 140.154 127.386L139.996 128.709H139.81L139.977 127.386C140.012 127.105 139.996 126.82 139.931 126.545C139.866 126.271 139.752 126.014 139.597 125.789C139.442 125.563 139.248 125.373 139.026 125.23C138.805 125.087 138.56 124.994 138.306 124.956C138.051 124.917 137.793 124.935 137.544 125.007C137.296 125.079 137.063 125.204 136.859 125.375C136.655 125.547 136.483 125.761 136.353 126.006C136.224 126.25 136.139 126.521 136.105 126.801L135.938 128.124H135.761L135.919 126.801C135.954 126.521 135.939 126.236 135.875 125.963C135.811 125.689 135.698 125.432 135.544 125.206C135.389 124.981 135.196 124.791 134.975 124.647C134.755 124.504 134.51 124.41 134.257 124.371C133.99 124.329 133.717 124.35 133.458 124.433L105.367 120.137C105.139 119.978 104.882 119.877 104.615 119.839C104.361 119.8 104.103 119.817 103.855 119.888C103.607 119.959 103.375 120.083 103.17 120.254C102.966 120.424 102.794 120.637 102.664 120.881C102.534 121.125 102.449 121.395 102.414 121.675L102.247 122.997H102.061L102.228 121.675C102.27 121.391 102.259 121.102 102.198 120.823C102.136 120.544 102.025 120.282 101.87 120.051C101.715 119.821 101.52 119.626 101.297 119.48C101.073 119.334 100.825 119.239 100.568 119.2C100.31 119.161 100.048 119.179 99.7972 119.253C99.5462 119.328 99.3112 119.457 99.106 119.633C98.9008 119.809 98.7296 120.029 98.6024 120.279C98.4752 120.529 98.3946 120.805 98.3653 121.09L98.1981 122.403H98.0124L98.1796 121.08C98.2483 120.513 98.1111 119.939 97.7979 119.484C97.4847 119.029 97.0209 118.729 96.508 118.65C96.244 118.608 95.9747 118.629 95.7187 118.711L67.702 114.313C66.7812 114.171 65.8442 114.231 64.9444 114.489C64.0447 114.747 63.1998 115.199 62.4582 115.818C61.7165 116.437 61.0926 117.211 60.622 118.096C60.1515 118.982 59.8435 119.961 59.7158 120.977L56.7442 144.622C56.4876 146.676 56.9802 148.759 58.1138 150.413C59.2474 152.066 60.9292 153.155 62.7896 153.44L90.5555 157.695C90.8372 157.953 91.1778 158.119 91.5399 158.177C91.7935 158.216 92.0517 158.2 92.2996 158.129C92.5474 158.057 92.7802 157.933 92.9846 157.763C93.189 157.592 93.3609 157.379 93.4907 157.135C93.6204 156.891 93.7054 156.622 93.7407 156.342L93.9822 154.404H94.1679L93.9264 156.342C93.8852 156.625 93.8957 156.915 93.9572 157.193C94.0188 157.472 94.1302 157.735 94.2849 157.965C94.4396 158.196 94.6345 158.39 94.8581 158.536C95.0818 158.682 95.3296 158.778 95.5871 158.817C95.8446 158.856 96.1066 158.837 96.3576 158.763C96.6086 158.689 96.8436 158.559 97.0488 158.383C97.254 158.207 97.4252 157.988 97.5524 157.737C97.6796 157.487 97.7602 157.211 97.7895 156.926L98.031 154.998H98.2167L97.9753 156.926C97.9399 157.206 97.9548 157.491 98.0192 157.765C98.0836 158.039 98.1962 158.296 98.3505 158.521C98.5049 158.747 98.698 158.937 98.9188 159.08C99.1396 159.223 99.3838 159.317 99.6375 159.356C100.001 159.416 100.373 159.355 100.705 159.182L128.341 163.468C128.605 163.719 128.926 163.885 129.27 163.95C129.524 163.99 129.782 163.975 130.031 163.904C130.279 163.834 130.512 163.709 130.717 163.539C130.922 163.368 131.094 163.154 131.223 162.91C131.352 162.665 131.437 162.395 131.471 162.114L131.722 160.187H131.898L131.657 162.125C131.622 162.405 131.637 162.691 131.703 162.965C131.768 163.239 131.881 163.496 132.037 163.722C132.192 163.948 132.386 164.137 132.607 164.28C132.829 164.423 133.074 164.516 133.328 164.555C133.582 164.593 133.841 164.576 134.089 164.504C134.337 164.432 134.57 164.307 134.775 164.135C134.979 163.964 135.151 163.75 135.28 163.505C135.41 163.26 135.494 162.99 135.529 162.709L135.77 160.792H135.956L135.705 162.719C135.637 163.286 135.774 163.86 136.087 164.315C136.4 164.771 136.864 165.07 137.377 165.149C137.741 165.209 138.112 165.149 138.445 164.975L157.287 167.856C158.207 167.998 159.144 167.938 160.044 167.68C160.944 167.422 161.789 166.97 162.531 166.351C163.272 165.732 163.896 164.958 164.367 164.073C164.837 163.187 165.145 162.208 165.273 161.192L168.245 137.547C168.488 135.501 167.991 133.432 166.861 131.788C165.73 130.145 164.059 129.06 162.208 128.77Z" stroke="#474242" stroke-linecap="round" stroke-linejoin="round"/>
<path d="M139.81 128.678L135.779 160.802" stroke="#474242" stroke-linecap="round" stroke-linejoin="round"/>
<path d="M135.938 128.093L131.908 160.207" stroke="#474242" stroke-linecap="round" stroke-linejoin="round"/>
<path d="M102.061 122.905L98.0312 155.029" stroke="#474242" stroke-linecap="round" stroke-linejoin="round"/>
<path d="M98.1982 122.311L94.168 154.435" stroke="#474242" stroke-linecap="round" stroke-linejoin="round"/>
<path d="M169.832 143.638L168.281 156.034" stroke="#474242" stroke-linecap="round" stroke-linejoin="round"/>
<path d="M172.043 143.976L170.482 156.372" stroke="#474242" stroke-linecap="round" stroke-linejoin="round"/>
<path d="M174.252 144.314L172.691 156.711" stroke="#474242" stroke-linecap="round" stroke-linejoin="round"/>
<path d="M150.629 297.716C151.753 308.421 158.829 315.824 161.067 318.705C162.922 321.414 164.545 324.307 165.914 327.349C166.46 331.182 166.55 335.077 166.183 338.935C169.991 339.345 176.491 345.621 211.76 347.138C233.787 348.071 260.978 341.099 267.915 338.423C267.682 337.961 267.469 337.561 267.292 337.264C263.931 331.502 267.292 324.96 267.292 324.96C269.929 316.501 271.991 307.837 273.458 299.039C268.379 298.906 252.973 297.255 246.788 282.572C240.52 267.684 252.193 232.976 256.075 222.353C252.211 221.851 249.268 221.328 247.94 220.436L247.763 220.303C245.145 230.228 237.409 258.025 230.417 267.756C221.845 279.691 205.817 282.572 193.151 276.809C180.484 271.047 177.866 259.112 179.361 250.889C180.54 244.367 189.91 224.414 193.745 216.406C192.009 217.606 189.771 218.026 186.864 218.078L159.609 270.637C159.609 270.637 149.515 287.022 150.629 297.716Z" fill="#474242" stroke="#474242" stroke-linecap="round" stroke-linejoin="round"/>
<path d="M201.154 324.847C214.641 331.033 229.494 332.626 243.806 329.42" stroke="#D3D2D2" stroke-linecap="round" stroke-linejoin="round"/>
<path d="M189.77 317.885C190.992 318.898 192.269 319.826 193.595 320.664" stroke="#D3D2D2" stroke-linecap="round" stroke-linejoin="round"/>
<path d="M217.917 72.4886C213.796 72.7438 209.768 73.9378 206.086 75.9953C200.653 79.1431 194.645 85.1517 197.97 95.6615C203.541 113.359 222.188 136.399 228.531 138.46C232.375 139.724 236.106 141.378 239.674 143.402C239.674 143.402 245.246 154.916 238.179 180.027C231.112 205.138 222.903 217.473 229.608 235.17C236.313 252.868 258.303 263.562 284.026 256.979C309.749 250.397 316.825 233.93 311.977 215.002C307.13 196.074 294.083 194.013 294.454 182.898C294.826 171.783 304.892 173.434 297.064 159.038C289.235 144.642 280.822 145.945 280.822 138.121C280.822 130.298 286.635 113.359 279.55 99.7731C272.882 86.9665 245.775 70.3559 217.917 72.4886Z" fill="#474242"/>
<mask id="mask2_320_7430" style="mask-type:luminance" maskUnits="userSpaceOnUse" x="197" y="72" width="117" height="187">
<path d="M217.917 72.4886C213.796 72.7438 209.768 73.9378 206.086 75.9953C200.653 79.1431 194.645 85.1517 197.97 95.6615C203.541 113.359 222.188 136.399 228.531 138.46C232.375 139.724 236.106 141.378 239.674 143.402C239.674 143.402 245.246 154.916 238.179 180.027C231.112 205.138 222.903 217.473 229.608 235.17C236.313 252.868 258.303 263.562 284.026 256.979C309.749 250.397 316.825 233.93 311.977 215.002C307.13 196.074 294.083 194.013 294.454 182.898C294.826 171.783 304.892 173.434 297.064 159.038C289.235 144.642 280.822 145.945 280.822 138.121C280.822 130.298 286.635 113.359 279.55 99.7731C272.882 86.9665 245.775 70.3559 217.917 72.4886Z" fill="white"/>
</mask>
<g mask="url(#mask2_320_7430)">
<path d="M197.449 79.2251C197.449 79.2251 210.283 110.529 233.564 126.391C256.844 142.253 282.493 138.541 282.493 138.541" stroke="#D3D2D2" stroke-linecap="round" stroke-linejoin="round"/>
<path d="M212.67 69.9971C212.67 69.9971 238.932 127.335 260.726 132.933C282.521 138.531 284.871 135.906 284.871 135.906" stroke="#D3D2D2" stroke-linecap="round" stroke-linejoin="round"/>
<path d="M244.057 87.4897C250.158 102.357 259.546 122.044 268.201 127.007C282.53 135.209 288.194 129.642 288.194 129.642" stroke="#D3D2D2" stroke-linecap="round" stroke-linejoin="round"/>
<path d="M237.445 69.9971C237.445 69.9971 238.978 74.5599 241.522 81.1221" stroke="#D3D2D2" stroke-linecap="round" stroke-linejoin="round"/>
<path d="M247.892 134.256C247.892 134.256 263.409 151.061 261.617 170.83C259.825 190.599 250.919 198.73 247.91 220.354C244.902 241.979 257.438 257.503 272.361 256.836C287.284 256.17 284.898 237.355 275.342 234.76C265.786 232.166 264.004 242.338 268.182 245.639C272.361 248.941 274.748 244.317 274.748 243.332" stroke="#D3D2D2" stroke-linecap="round" stroke-linejoin="round"/>
<path d="M261.32 138.234C261.32 138.234 272.362 148.774 272.362 168.871C272.362 188.968 266.994 192.27 269.381 203.805C271.767 215.34 285.167 212.377 290.869 226.875C296.571 241.374 293.256 252.581 287.285 257.523" stroke="#D3D2D2" stroke-linecap="round" stroke-linejoin="round"/>
<path d="M272.658 139.198C272.658 139.198 287.284 150.733 289.968 166.216C292.652 181.698 275.946 178.079 286.69 198.842C297.434 219.606 320.408 222.897 309.367 244.316" stroke="#D3D2D2" stroke-linecap="round" stroke-linejoin="round"/>
</g>
<path d="M217.917 72.4886C213.796 72.7438 209.768 73.9378 206.086 75.9953C200.653 79.1431 194.645 85.1517 197.97 95.6615C203.541 113.359 222.188 136.399 228.531 138.46C232.375 139.724 236.106 141.378 239.674 143.402C239.674 143.402 245.246 154.916 238.179 180.027C231.112 205.138 222.903 217.473 229.608 235.17C236.313 252.868 258.303 263.562 284.026 256.979C309.749 250.397 316.825 233.93 311.977 215.002C307.13 196.074 294.083 194.013 294.454 182.898C294.826 171.783 304.892 173.434 297.064 159.038C289.235 144.642 280.822 145.945 280.822 138.121C280.822 130.298 286.635 113.359 279.55 99.7731C272.882 86.9665 245.775 70.3559 217.917 72.4886Z" stroke="#474242" stroke-linecap="round" stroke-linejoin="round"/>
<path d="M201.703 179.248C201.703 179.248 201.49 181.832 201.062 185.872L222.57 176.367L201.703 179.248Z" fill="#474242" stroke="#474242" stroke-linecap="round" stroke-linejoin="round"/>
<path d="M298.13 453.528C298.52 444.423 298.632 423.455 293.004 403.891C291.008 396.95 288.482 389.362 285.78 381.856C276.233 386.409 254.438 394.673 218.092 397.308C181.04 399.995 157.731 388.603 147.739 382.144C146.309 386.737 145.009 391.546 143.923 396.498C139.549 416.452 140.877 442.947 141.666 453.549" fill="#633C97"/>
<path d="M298.13 453.528C298.52 444.423 298.632 423.455 293.004 403.891C291.008 396.95 288.482 389.362 285.78 381.856C276.233 386.409 254.438 394.673 218.092 397.308C181.04 399.995 157.731 388.603 147.739 382.144C146.309 386.737 145.009 391.546 143.923 396.498C139.549 416.452 140.877 442.947 141.666 453.549" stroke="#474242" stroke-linecap="round" stroke-linejoin="round"/>
<path d="M241.132 388.542L214.258 438.917" stroke="#474242" stroke-linecap="round" stroke-linejoin="round"/>
<path d="M159.914 383.025C159.914 383.025 164.288 401.656 174.289 417.528" stroke="#474242" stroke-linecap="round" stroke-linejoin="round"/>
<path d="M331.506 310.369C331.506 310.369 299.004 358.622 293.376 359.032C287.749 359.442 273.996 344.216 272.881 345.047C271.767 345.877 253.129 372.618 250.139 376.73C247.149 380.841 253.854 377.55 253.854 377.55C253.854 377.55 251.616 384.133 253.854 384.543C256.092 384.953 259.815 382.082 259.815 382.082C259.815 382.082 259.073 387.845 261.301 387.014C263.53 386.184 268.015 382.082 268.015 382.082C268.015 382.082 263.911 387.845 267.272 387.014C270.634 386.184 281.805 376.761 281.805 376.761C281.805 376.761 286.272 386.225 295.596 382.523C304.919 378.822 364.88 326.262 365.243 320.09C365.605 313.917 354.842 301.346 354.842 301.346" fill="#CCCCCC"/>
<mask id="mask3_320_7430" style="mask-type:luminance" maskUnits="userSpaceOnUse" x="249" y="301" width="117" height="87">
<path d="M331.506 310.369C331.506 310.369 299.004 358.622 293.376 359.032C287.749 359.442 273.996 344.216 272.881 345.047C271.767 345.877 253.129 372.618 250.139 376.73C247.149 380.841 253.854 377.55 253.854 377.55C253.854 377.55 251.616 384.133 253.854 384.543C256.092 384.953 259.815 382.082 259.815 382.082C259.815 382.082 259.073 387.845 261.301 387.014C263.53 386.184 268.015 382.082 268.015 382.082C268.015 382.082 263.911 387.845 267.272 387.014C270.634 386.184 281.805 376.761 281.805 376.761C281.805 376.761 286.272 386.225 295.596 382.523C304.919 378.822 364.88 326.262 365.243 320.09C365.605 313.917 354.842 301.346 354.842 301.346" fill="white"/>
</mask>
<g mask="url(#mask3_320_7430)">
<path opacity="0.2" d="M365.27 320.059C365.651 313.907 353.839 299.911 353.839 299.911L345.184 303.961L344.06 304.617C344.06 304.617 353.291 311.302 348.221 322.489C343.15 333.675 306.182 371.706 299.096 375.612C292.011 379.519 286.94 373.377 282.882 373.931C280.756 374.228 276.93 378.709 273.717 383.159C277.71 380.236 281.824 376.75 281.824 376.75C281.824 376.75 286.29 386.214 295.614 382.513C304.937 378.811 364.899 326.231 365.27 320.059Z" fill="black"/>
</g>
<path d="M331.506 310.369C331.506 310.369 299.004 358.622 293.376 359.032C287.749 359.442 273.996 344.216 272.881 345.047C271.767 345.877 253.129 372.618 250.139 376.73C247.149 380.841 253.854 377.55 253.854 377.55C253.854 377.55 251.616 384.133 253.854 384.543C256.092 384.953 259.815 382.082 259.815 382.082C259.815 382.082 259.073 387.845 261.301 387.014C263.53 386.184 268.015 382.082 268.015 382.082C268.015 382.082 263.911 387.845 267.272 387.014C270.634 386.184 281.805 376.761 281.805 376.761C281.805 376.761 286.272 386.225 295.596 382.523C304.919 378.822 364.88 326.262 365.243 320.09C365.605 313.917 354.842 301.346 354.842 301.346" stroke="#474242" stroke-linecap="round" stroke-linejoin="round"/>
<path d="M268.035 382.082L279.587 368.907" stroke="#474242" stroke-linecap="round" stroke-linejoin="round"/>
<path d="M259.836 382.082L274.369 363.975" stroke="#474242" stroke-linecap="round" stroke-linejoin="round"/>
<path d="M253.873 377.55L269.52 357.802" stroke="#474242" stroke-linecap="round" stroke-linejoin="round"/>
<path d="M87.2768 179.607C87.2768 179.607 98.4203 168.092 107.029 168.092C115.637 168.092 118.581 168.092 120.029 164.38C121.478 160.669 132.334 154.127 133.82 150.025C135.305 145.924 127.115 146.734 122.267 149.615C119.502 151.201 116.992 153.28 114.838 155.767C114.838 155.767 99.9247 151.235 93.22 151.235C86.5153 151.235 81.6678 161.109 81.2871 166.052" fill="#CCCCCC"/>
<path d="M87.2768 179.607C87.2768 179.607 98.4203 168.092 107.029 168.092C115.637 168.092 118.581 168.092 120.029 164.38C121.478 160.669 132.334 154.127 133.82 150.025C135.305 145.924 127.115 146.734 122.267 149.615C119.502 151.201 116.992 153.28 114.838 155.767C114.838 155.767 99.9247 151.235 93.22 151.235C86.5153 151.235 81.6678 161.109 81.2871 166.052" stroke="#474242" stroke-linecap="round" stroke-linejoin="round"/>
<path d="M229.645 145.863C229.645 145.863 235.216 126.114 241.568 130.636C247.92 135.158 246.787 147.924 241.94 153.686C237.092 159.449 234.511 158.628 231.883 155.327" fill="#D3D2D2"/>
<path d="M229.645 145.863C229.645 145.863 235.216 126.114 241.568 130.636C247.92 135.158 246.787 147.924 241.94 153.686C237.092 159.449 234.511 158.628 231.883 155.327" stroke="#474242" stroke-linecap="round" stroke-linejoin="round"/>
<path d="M201.704 354.377C201.697 354.731 201.595 355.074 201.413 355.364C201.231 355.655 200.975 355.879 200.678 356.011C200.381 356.142 200.055 356.175 199.742 356.104C199.428 356.033 199.141 355.862 198.914 355.612C198.688 355.362 198.533 355.044 198.469 354.698C198.405 354.352 198.434 353.992 198.553 353.664C198.672 353.336 198.876 353.054 199.139 352.853C199.402 352.652 199.712 352.54 200.032 352.532C200.253 352.526 200.473 352.57 200.678 352.661C200.883 352.752 201.069 352.887 201.226 353.06C201.382 353.232 201.505 353.438 201.587 353.664C201.669 353.891 201.709 354.133 201.704 354.377Z" fill="white" stroke="#474242" stroke-linecap="round" stroke-linejoin="round"/>
</svg>
