<svg width="539" height="571" viewBox="0 0 539 571" fill="none" xmlns="http://www.w3.org/2000/svg">
<path d="M539 289.496C539 403.03 439.46 519.144 324.154 571C211.743 571 51.2295 411.728 0 267.272C0 153.738 88.9218 170.968 256.308 108C368.719 108 539 175.962 539 289.496Z" fill="#DAD0E6" fill-opacity="0.6"/>
<g clip-path="url(#clip0_1001_4151)">
<path d="M287.357 490.029L272.582 490.029L277.344 528.642L287.355 528.642L287.357 490.029Z" fill="#A0616A"/>
<path d="M274.014 529.543C272.017 531.667 256.345 539.698 257.141 543.413C257.141 544.623 257.648 545.714 258.469 546.485C259.222 547.212 260.246 547.652 261.372 547.652H280.217L280.801 546.442L283.466 540.942L284.499 546.442L284.727 547.652H291.835L291.734 546.434L289.838 523.705L287.359 523.552L276.646 522.918L274.014 522.757L274.014 529.543Z" fill="#2F2E41"/>
<path d="M224.742 391.566L215.229 402.871L247.84 424.088L254.286 416.428L224.742 391.566Z" fill="#A0616A"/>
<path d="M246.386 427.217C246.726 430.112 242.78 447.274 246.135 449.058C247.061 449.837 248.223 450.151 249.341 450.019C250.382 449.911 251.378 449.411 252.103 448.55L264.236 434.13L263.686 432.904L261.194 427.323L266.067 430.075L267.14 430.679L271.716 425.24L270.719 424.533L252.107 411.35L250.394 413.149L243.011 420.937L241.193 422.848L246.386 427.217Z" fill="#2F2E41"/>
<path d="M276.834 250.108L209.535 221.427C224.076 202.806 217.671 173.072 217.834 142.108L285.834 144.108C284.654 168.159 278.439 192.876 297.283 221.427L302.834 237.108L276.834 250.108Z" fill="#A0616A"/>
<path d="M209.535 221.427L209.834 268.108L257.661 301.026L269.834 491.108L289.834 492.108L296.834 434.108L317.341 320.943C317.341 320.943 315.834 314.108 318.558 314.223C321.282 314.339 316.834 307.108 319.854 307.072C320.798 307.06 321.541 304.911 322.116 301.962C323.962 292.491 322.822 282.68 319.109 273.774L297.283 221.427C268.719 235.725 239.402 234.309 209.535 221.427Z" fill="#2F2E41"/>
<path d="M225.441 258.815L264.465 294.968C264.465 294.968 221.835 313.108 225.725 315.717C229.615 318.326 220.82 317.458 220.82 317.458L194.228 337.735L178.976 345.192L233.662 391.957L212.228 409.815L148.027 360.761C138.939 357.047 133 348.204 133 338.386C133 329.672 137.69 320.632 145.276 316.344L209.835 268.108L225.441 258.815Z" fill="#2F2E41"/>
<path d="M215.622 185.345C212.409 184.583 214.835 184.108 215.462 184.019C216.088 183.93 215.835 181.108 215.229 182.089C214.622 183.07 209.579 135.348 209.579 135.348C205.849 125.766 194.682 106.768 203.835 102.108L235.835 87.1079L265.835 88.1079L297.835 101.108C303.58 106.791 297.703 121.605 294.549 131.038L291.66 151.285C291.66 151.285 285.835 175.108 288.052 176.579C290.269 178.05 287.769 178.563 287.769 178.563C287.769 178.563 283.835 177.108 287.373 181.341C284.132 187.015 294.423 220.873 298.157 220.079C279.085 239.205 240.72 233.083 212.157 214.079C212.157 214.079 218.835 186.108 215.622 185.345Z" fill="#441582"/>
<path d="M319.479 156.736L274.744 160.958L275.255 176.681L331.769 171.416C338.579 170.782 343.394 164.461 342.183 157.73C339.753 144.214 315.476 113.862 311.41 107.725C305.162 98.2926 296.688 129.085 296.688 129.085L319.479 156.736Z" fill="#A0616A"/>
<path d="M269.377 178.284C275.452 178.284 280.377 173.359 280.377 167.284C280.377 161.209 275.452 156.284 269.377 156.284C263.302 156.284 258.377 161.209 258.377 167.284C258.377 173.359 263.302 178.284 269.377 178.284Z" fill="#A0616A"/>
<path d="M215.227 99.6735C215.227 99.6735 215.44 124.557 205.383 119.374C198.839 116.001 152.56 105.931 143.841 95.3193C139.5 90.0349 140.618 82.1685 146.252 78.2913L193.009 46.1147L201.128 59.5888L164.143 85.1062L215.227 99.6735Z" fill="#A0616A"/>
<path d="M202.725 62.4482C208.8 62.4482 213.725 57.5234 213.725 51.4482C213.725 45.3731 208.8 40.4482 202.725 40.4482C196.649 40.4482 191.725 45.3731 191.725 51.4482C191.725 57.5234 196.649 62.4482 202.725 62.4482Z" fill="#A0616A"/>
<path d="M178.209 87.1079L220.199 99.252L211.35 126.337C206.488 128.127 201.112 126.556 197.976 122.431L175.162 112.908L178.209 87.1079Z" fill="#441582"/>
<path d="M288.92 99.252L296.32 99.9829C301.186 98.1928 306.559 99.7646 309.694 103.889L332.119 132.569L302.835 144.108L280.379 116.268L288.92 99.252Z" fill="#441582"/>
<path d="M202.011 531.472C202.623 533.966 202.933 536.535 202.89 539.113L202.89 539.114C202.212 539.953 201.527 540.786 200.849 541.626C200.823 541.658 200.797 541.691 200.765 541.723C199.428 543.363 198.091 545.017 196.754 546.658C198.394 546.961 200.074 547.058 201.74 546.954C201.682 547.155 201.624 547.361 201.559 547.562H183.539C181.356 542.847 179.657 537.899 178.495 532.835H178.488C167.854 536.475 157.913 535.289 155.598 522.792C153.221 520.202 151.322 517.199 149.959 513.963C150.005 513.956 150.043 513.95 150.089 513.943L150.151 513.934C152.923 513.506 153.732 509.879 151.392 508.332C150.982 508.061 150.562 507.804 150.134 507.562C149.385 507.142 148.61 506.767 147.815 506.445L147.793 506.302C147.345 503.324 150.636 501.293 153.204 502.865C158.54 506.13 165.527 507.626 170.473 511.689C173.793 514.415 176.079 518.348 176.899 522.559L176.919 522.695C176.596 518.871 176.57 515.022 176.867 511.192C177.106 508.156 177.532 505.133 178.146 502.143C178.83 498.759 179.754 495.419 180.91 492.164C180.658 492.041 180.413 491.912 180.161 491.783C168.75 491.549 160.758 486.335 164.46 472.019C164.072 470.514 163.807 468.983 163.652 467.439L163.715 467.43C166.487 467.002 167.296 463.375 164.956 461.828C164.546 461.557 164.126 461.3 163.697 461.058C163.703 461.004 163.709 460.951 163.715 460.897C164.325 455.346 171.433 453.434 174.899 457.814C177.784 461.459 181.061 465.011 182.809 469.229C184.345 472.93 185.246 478.672 184.636 483.438C186.795 479.15 189.356 475.067 192.317 471.27C192.478 471.063 192.646 470.863 192.808 470.656C191.238 468.143 190.992 464.968 189.203 462.621C186.392 458.932 186.436 455.097 191.018 452.784C193.163 447.29 197.272 446.584 200.255 450.627C200.854 451.44 201.837 451.854 202.386 452.687C202.089 453.056 203.181 459.056 203.574 459.004C203.342 460.406 202.851 461.781 202.225 463.06C200.481 466.606 197.594 469.564 194.132 471.457C186.93 480.428 181.937 491.169 179.632 502.447C179.205 504.533 178.876 506.638 178.637 508.757C178.346 511.347 178.204 513.943 178.204 516.54C178.204 526.874 180.471 537.15 184.779 546.561C184.321 544.532 184.204 542.427 184.463 540.36C185.039 535.678 187.38 531.242 189.218 526.814C191.29 521.825 198.371 521.791 200.46 526.772C200.481 526.822 200.501 526.871 200.522 526.921L200.366 527.539C198.803 529.035 199.945 531.602 202.011 531.472Z" fill="#F2F2F2"/>
<path d="M343.659 533.472C343.047 535.966 342.738 538.535 342.78 541.113L342.78 541.114C343.459 541.953 344.143 542.786 344.821 543.626C344.847 543.658 344.873 543.691 344.905 543.723C346.242 545.363 347.579 547.017 348.916 548.658C347.276 548.961 345.596 549.058 343.93 548.954C343.988 549.155 344.046 549.361 344.111 549.562H362.131C364.314 544.847 366.013 539.899 367.176 534.835H367.182C377.816 538.475 387.758 537.289 390.072 524.792C392.449 522.202 394.348 519.199 395.711 515.963C395.666 515.956 395.627 515.95 395.582 515.943L395.519 515.934C392.747 515.506 391.938 511.879 394.278 510.332C394.688 510.061 395.108 509.804 395.536 509.562C396.286 509.142 397.061 508.767 397.855 508.445L397.877 508.302C398.325 505.324 395.034 503.293 392.466 504.865C387.13 508.13 380.143 509.626 375.197 513.689C371.878 516.415 369.591 520.348 368.771 524.559L368.751 524.695C369.074 520.871 369.1 517.022 368.803 513.192C368.564 510.156 368.138 507.133 367.524 504.143C366.84 500.759 365.916 497.419 364.76 494.164C365.012 494.041 365.257 493.912 365.509 493.783C376.921 493.549 384.912 488.335 381.211 474.019C381.598 472.514 381.863 470.983 382.018 469.439L381.955 469.43C379.183 469.002 378.375 465.375 380.714 463.828C381.124 463.557 381.544 463.3 381.973 463.058L381.955 462.897C381.345 457.346 374.237 455.434 370.771 459.814C367.886 463.459 364.609 467.011 362.861 471.229C361.325 474.93 360.424 480.672 361.035 485.438C358.876 481.15 356.315 477.067 353.354 473.27C353.192 473.063 353.024 472.863 352.863 472.656C354.432 470.143 354.678 466.968 356.467 464.621C359.278 460.932 359.234 457.097 354.652 454.784C352.507 449.29 348.398 448.584 345.416 452.627C344.816 453.44 343.833 453.854 343.284 454.687C343.581 455.056 342.49 461.056 342.096 461.004C342.328 462.406 342.819 463.781 343.446 465.06C345.19 468.606 348.077 471.564 351.539 473.457C358.74 482.428 363.733 493.169 366.039 504.447C366.465 506.533 366.794 508.638 367.033 510.757C367.324 513.347 367.466 515.943 367.466 518.54C367.466 528.874 365.199 539.15 360.891 548.561C361.35 546.532 361.466 544.427 361.207 542.36C360.631 537.678 358.29 533.242 356.452 528.814C354.38 523.825 347.3 523.791 345.21 528.772C345.19 528.822 345.169 528.871 345.149 528.921L345.304 529.539C346.867 531.035 345.725 533.602 343.659 533.472Z" fill="#F2F2F2"/>
<path d="M404.06 546.779H150.77C150.11 546.779 149.58 547.309 149.58 547.969C149.58 548.629 150.11 549.159 150.77 549.159H404.06C404.72 549.159 405.25 548.629 405.25 547.969C405.25 547.309 404.72 546.779 404.06 546.779Z" fill="#CCCCCC"/>
<path d="M254.996 82.851C245.509 79.3442 226.286 91.1971 227.946 79.5035C229.264 70.1828 221.916 119.198 220.093 118.631C216.89 117.631 225.82 51.7609 223.941 47.5154C223.7 46.9664 223.419 46.3869 223.088 45.783C222.746 45.1364 222.359 44.4593 221.922 43.7456C221.91 43.7273 221.894 43.709 221.882 43.6907C220.368 27.0805 236.607 13.4289 257.2 15.1368H257.216C259.309 15.3015 261.468 15.6492 263.639 16.1494H273.871C274.976 16.1494 276.059 16.2165 277.13 16.3385C281.253 16.8204 285.095 18.2295 288.467 20.3401C292.999 23.1827 295.821 28.2334 296.264 33.2476C296.612 37.0844 295.563 40.903 292.836 43.6907L292.803 43.6968C293.162 45.2401 293.414 46.82 293.566 48.4304C293.683 49.5893 293.734 50.7666 293.734 51.95C293.734 52.194 293.734 52.4441 293.717 52.682C293.442 67.3585 284.523 79.8695 271.947 85.1154C271.84 85.1601 271.727 85.2054 271.609 85.2514C268.242 86.5582 266.272 86.164 262.784 85.3138C260.099 84.6595 257.519 83.7836 254.996 82.851Z" fill="#2F2E41"/>
<path d="M254.725 78.2864C268.101 78.2864 278.945 67.4425 278.945 54.0658C278.945 40.6891 268.101 29.8452 254.725 29.8452C241.348 29.8452 230.504 40.6891 230.504 54.0658C230.504 67.4425 241.348 78.2864 254.725 78.2864Z" fill="#A0616A"/>
<path d="M233.662 43.8233C233.662 43.397 233.673 42.9819 233.701 42.5556C234.347 30.254 244.404 24.9026 256.919 24.4033C257.25 24.3865 257.581 24.3753 257.912 24.3753H266.898C266.898 23.4105 267.218 22.5242 267.773 21.8174C268.099 21.3798 268.514 21.0152 268.979 20.7403C268.991 20.7403 268.991 20.7347 268.996 20.7347C269.636 20.3589 270.371 20.1401 271.161 20.1401C271.285 20.1401 271.419 20.1514 271.56 20.157C273.489 20.3364 275.374 20.6282 277.231 21.0152C278.14 21.2059 279.048 21.4247 279.935 21.6659C280.008 21.6827 280.069 21.6996 280.142 21.7164C283.07 22.5242 285.892 23.5787 288.568 24.8801C291.557 26.6864 294.166 29.0311 296.264 31.7798C296.612 35.3081 295.563 38.8197 292.836 41.3832L292.803 41.3888C293.162 42.808 293.414 44.2608 293.566 45.7418C293.683 46.8075 293.734 47.8902 293.734 48.9784C293.734 49.2028 293.734 49.4328 293.717 49.6515C293.442 63.1479 282.594 114.368 270.017 119.192C270.752 115.944 273.327 73.6937 273.703 72.5045C279.469 54.4028 275.206 49.3374 266.898 43.8233H258.832C257.261 41.4673 256.487 38.5841 256.695 35.7569C255.578 38.3092 254.961 41.0578 254.849 43.8233C250.844 49.1074 244.242 48.6979 236.136 45.0237C235.71 44.833 235.289 44.6311 234.868 44.4291C234.464 44.2328 234.066 44.0365 233.662 43.8233Z" fill="#2F2E41"/>
<path d="M286.791 44.7971C295.603 44.7971 302.747 37.6531 302.747 28.8405C302.747 20.0278 295.603 12.8838 286.791 12.8838C277.978 12.8838 270.834 20.0278 270.834 28.8405C270.834 37.6531 277.978 44.7971 286.791 44.7971Z" fill="#2F2E41"/>
<path d="M276.557 2.14708C283.376 7.72968 293.76 5.26297 295.87 13.8193C297.98 22.3756 292.754 31.0223 284.198 33.1323C275.641 35.2422 266.698 30.0842 264.885 21.46C262.44 9.82967 266.911 -5.75031 276.557 2.14708Z" fill="#2F2E41"/>
</g>
<defs>
<clipPath id="clip0_1001_4151">
<rect width="272.251" height="549.562" fill="white" transform="translate(133)"/>
</clipPath>
</defs>
</svg>
