<svg width="220" height="126" viewBox="0 0 220 126" fill="none" xmlns="http://www.w3.org/2000/svg">
<path fill-rule="evenodd" clip-rule="evenodd" d="M69.1624 2.76304L45.3047 22.8099L47.7388 25.9245L73.2735 4.46859C76.1759 5.83278 78.9527 7.48742 81.5778 9.40193L53.4364 33.0482L55.8705 36.1628L84.7455 11.9002C86.6087 13.4856 88.3814 15.2088 90.0528 17.0572L60.9873 41.48L63.4214 44.5946L92.6032 20.0741C93.8654 21.6712 95.0577 23.3457 96.1744 25.0908L76.6696 41.48L79.1038 44.5946L98.2248 28.5278C103.694 38.379 106.873 50.1458 106.873 62.7849C106.873 97.4601 82.9483 125.57 53.4363 125.57C23.9242 125.57 0 97.4601 0 62.7849C0 28.1098 23.9242 0 53.4363 0C58.9095 0 64.1906 0.966822 69.1624 2.76304Z" fill="white"/>
<path d="M23.52 84.5698V58.6498H28.416V69.3058H40.008V58.6498H44.904V84.5698H40.008V73.8778H28.416V84.5698H23.52ZM48.1575 84.5698L56.0775 58.6498H63.3855L71.3055 84.5698H66.2655L59.2095 61.7098H60.1455L53.1975 84.5698H48.1575ZM52.9095 79.1698V74.5978H66.5895V79.1698H52.9095ZM74.5317 84.5698V58.6498H84.8997C86.7477 58.6498 88.2417 59.0218 89.3817 59.7658C90.5217 60.4978 91.3557 61.4218 91.8837 62.5378C92.4117 63.6538 92.6757 64.7818 92.6757 65.9218C92.6757 67.3738 92.3457 68.5798 91.6857 69.5398C91.0377 70.4998 90.1437 71.1418 89.0037 71.4658V70.5658C90.6237 70.9018 91.8357 71.6518 92.6397 72.8158C93.4557 73.9798 93.8637 75.2818 93.8637 76.7218C93.8637 78.2698 93.5757 79.6318 92.9997 80.8078C92.4357 81.9838 91.5717 82.9078 90.4077 83.5798C89.2437 84.2398 87.7797 84.5698 86.0157 84.5698H74.5317ZM79.4997 79.9618H85.5117C86.1717 79.9618 86.7597 79.8238 87.2757 79.5478C87.7917 79.2598 88.1937 78.8638 88.4817 78.3598C88.7817 77.8438 88.9317 77.2378 88.9317 76.5418C88.9317 75.9298 88.8057 75.3838 88.5537 74.9038C88.3017 74.4238 87.9177 74.0458 87.4017 73.7698C86.8977 73.4818 86.2677 73.3378 85.5117 73.3378H79.4997V79.9618ZM79.4997 68.7658H84.8277C85.3797 68.7658 85.8717 68.6698 86.3037 68.4778C86.7357 68.2858 87.0777 67.9918 87.3297 67.5958C87.5817 67.1878 87.7077 66.6658 87.7077 66.0298C87.7077 65.2378 87.4617 64.5718 86.9697 64.0318C86.4777 63.4918 85.7637 63.2218 84.8277 63.2218H79.4997V68.7658ZM97.8136 84.5698V58.6498H102.71V84.5698H97.8136Z" fill="#441582"/>
<path d="M114.118 84.5698V63.2218H105.946V58.6498H127.186V63.2218H119.014V84.5698H114.118ZM140.627 85.1098C138.539 85.1098 136.703 84.6898 135.119 83.8498C133.535 82.9978 132.299 81.8038 131.411 80.2678C130.523 78.7318 130.079 76.9258 130.079 74.8498V58.6858L135.047 58.6498V74.8138C135.047 75.6658 135.191 76.4398 135.479 77.1358C135.767 77.8318 136.163 78.4318 136.667 78.9358C137.183 79.4398 137.777 79.8298 138.449 80.1058C139.133 80.3698 139.859 80.5018 140.627 80.5018C141.419 80.5018 142.151 80.3638 142.823 80.0878C143.507 79.8118 144.101 79.4218 144.605 78.9178C145.109 78.4138 145.499 77.8138 145.775 77.1178C146.063 76.4218 146.207 75.6538 146.207 74.8138V58.6498H151.175V74.8498C151.175 76.9258 150.731 78.7318 149.843 80.2678C148.955 81.8038 147.719 82.9978 146.135 83.8498C144.551 84.6898 142.715 85.1098 140.627 85.1098ZM153.31 84.5698L161.23 58.6498H168.538L176.458 84.5698H171.418L164.362 61.7098H165.298L158.35 84.5698H153.31ZM158.062 79.1698V74.5978H171.742V79.1698H158.062ZM180.044 84.5698V58.6498H184.94V79.9978H196.1V84.5698H180.044Z" fill="white"/>
</svg>
