<svg width="24" height="24" viewBox="0 0 24 24" fill="none" xmlns="http://www.w3.org/2000/svg">
<path d="M13.0008 2V4C17.3908 4.54 20.5008 8.53 19.9608 12.92C19.74 14.689 18.9358 16.3339 17.6752 17.5944C16.4146 18.855 14.7698 19.6593 13.0008 19.88V21.88C18.5008 21.28 22.4508 16.34 21.8508 10.85C21.3308 6.19 17.6608 2.5 13.0008 2ZM11.0008 2C9.04078 2.18 7.19078 2.95 5.67078 4.2L7.10078 5.74C8.22078 4.84 9.57078 4.26 11.0008 4.06V2.06M4.26078 5.67C3.00646 7.18495 2.23648 9.04196 2.05078 11H4.05078C4.24078 9.58 4.80078 8.23 5.69078 7.1L4.26078 5.67ZM2.06078 13C2.26078 14.96 3.03078 16.81 4.27078 18.33L5.69078 16.9C4.80771 15.7696 4.24474 14.4226 4.06078 13H2.06078ZM7.06078 18.37L5.67078 19.74C7.18556 21.0027 9.04005 21.789 11.0008 22V20C9.57818 19.816 8.23119 19.2531 7.10078 18.37H7.06078ZM8.58078 16.8L9.50078 12.91L6.50078 10.33L10.4508 9.96L12.0008 6.35L13.5508 10L17.5008 10.33L14.5008 12.91L15.4208 16.8L12.0008 14.74L8.58078 16.8Z" fill="#C1B1D5"/>
</svg>
