<svg width="611" height="454" viewBox="0 0 611 454" fill="none" xmlns="http://www.w3.org/2000/svg">
<path d="M305.499 454.001C436.14 454.001 542.045 447.825 542.045 440.206C542.045 432.588 436.14 426.412 305.499 426.412C174.858 426.412 68.9531 432.588 68.9531 440.206C68.9531 447.825 174.858 454.001 305.499 454.001Z" fill="#F5F5F5"/>
<path d="M386.984 89.0557H385.715V97.074H386.984V89.0557Z" fill="#474242"/>
<path d="M386.984 82.5358H385.764C385.758 77.8656 383.897 73.3886 380.589 70.0874C377.282 66.7862 372.799 64.9303 368.123 64.9271V63.7085C373.118 63.7245 377.905 65.7129 381.438 69.2399C384.971 72.7669 386.965 77.5463 386.984 82.5358Z" fill="#474242"/>
<path d="M368.074 68.0952H199.69C191.699 68.0952 185.221 74.5658 185.221 82.5478V425.582C185.221 433.564 191.699 440.035 199.69 440.035H368.074C376.065 440.035 382.544 433.564 382.544 425.582V82.5478C382.544 74.5658 376.065 68.0952 368.074 68.0952Z" fill="#474242"/>
<path opacity="0.95" d="M375.98 425.583V82.5359C375.98 77.6297 371.999 73.6523 367.087 73.6523L198.702 73.6523C193.79 73.6523 189.808 77.6297 189.808 82.5359L189.808 425.583C189.808 430.489 193.79 434.466 198.702 434.466H367.087C371.999 434.466 375.98 430.489 375.98 425.583Z" fill="white"/>
<path d="M282.905 420.696C288.464 420.696 292.97 416.195 292.97 410.643C292.97 405.09 288.464 400.589 282.905 400.589C277.346 400.589 272.84 405.09 272.84 410.643C272.84 416.195 277.346 420.696 282.905 420.696Z" fill="#474242"/>
<path d="M275.207 72.6411C275.207 74.842 276.082 76.9528 277.64 78.5091C279.199 80.0654 281.312 80.9397 283.515 80.9397C285.719 80.9397 287.832 80.0654 289.39 78.5091C290.948 76.9528 291.823 74.842 291.823 72.6411H275.207Z" fill="#474242"/>
<path opacity="0.7" d="M337.843 108.65H229.263C224.834 108.663 220.59 110.426 217.458 113.554C214.327 116.682 212.562 120.921 212.549 125.345V136.483C212.562 140.907 214.327 145.146 217.458 148.274C220.59 151.402 224.834 153.165 229.263 153.178H337.843L354.557 163.073V125.296C354.528 120.882 352.756 116.657 349.627 113.541C346.497 110.424 342.262 108.666 337.843 108.65Z" fill="#441582"/>
<path d="M334.816 124.602H232.227V127.38H334.816V124.602Z" fill="white"/>
<path d="M334.817 134.448H251.967V137.227H334.817V134.448Z" fill="white"/>
<path opacity="0.15" d="M229.202 182.79H337.782C342.211 182.802 346.455 184.565 349.587 187.694C352.718 190.822 354.483 195.061 354.496 199.484V210.61C354.483 215.034 352.718 219.273 349.587 222.401C346.455 225.529 342.211 227.292 337.782 227.305H229.202L212.488 237.2V199.423C212.514 195.009 214.285 190.784 217.416 187.668C220.546 184.553 224.783 182.799 229.202 182.79Z" fill="#474242"/>
<path opacity="0.5" d="M334.816 198.729H232.227V201.507H334.816V198.729Z" fill="#474242"/>
<path opacity="0.5" d="M279.807 208.587H232.227V211.366H279.807V208.587Z" fill="#474242"/>
<path opacity="0.5" d="M306.586 208.587H287.236V211.366H306.586V208.587Z" fill="#474242"/>
<path opacity="0.7" d="M337.843 256.917H229.263C224.834 256.93 220.59 258.693 217.458 261.821C214.327 264.949 212.562 269.188 212.549 273.612V284.738C212.558 289.162 214.323 293.403 217.455 296.532C220.587 299.661 224.833 301.423 229.263 301.432H337.843L354.557 311.327V273.551C354.525 269.139 352.752 264.917 349.622 261.803C346.493 258.689 342.26 256.933 337.843 256.917Z" fill="#441582"/>
<path d="M334.816 272.856H232.227V275.634H334.816V272.856Z" fill="white"/>
<path d="M334.817 282.715H251.967V285.493H334.817V282.715Z" fill="white"/>
<path opacity="0.15" d="M229.202 331.044H271.451C275.879 331.06 280.121 332.824 283.252 335.951C286.383 339.079 288.149 343.316 288.165 347.739V358.877C288.149 363.299 286.383 367.537 283.252 370.664C280.121 373.791 275.879 375.555 271.451 375.571H229.202L212.488 385.454V347.739C212.501 343.315 214.266 339.076 217.398 335.948C220.53 332.82 224.773 331.057 229.202 331.044Z" fill="#474242"/>
<path opacity="0.5" d="M237.668 353.307C237.668 354.272 237.382 355.214 236.846 356.016C236.31 356.817 235.547 357.442 234.656 357.811C233.764 358.18 232.783 358.276 231.836 358.088C230.89 357.9 230.02 357.436 229.338 356.754C228.655 356.073 228.19 355.204 228.002 354.258C227.814 353.313 227.91 352.333 228.28 351.442C228.649 350.551 229.275 349.79 230.077 349.255C230.88 348.719 231.823 348.433 232.788 348.433C234.078 348.449 235.31 348.968 236.221 349.878C237.133 350.789 237.652 352.02 237.668 353.307Z" fill="#474242"/>
<path opacity="0.5" d="M247.539 354.295C250.267 354.295 252.48 352.085 252.48 349.36C252.48 346.634 250.267 344.424 247.539 344.424C244.81 344.424 242.598 346.634 242.598 349.36C242.598 352.085 244.81 354.295 247.539 354.295Z" fill="#474242"/>
<path opacity="0.5" d="M267.278 359.218C267.278 360.182 266.991 361.124 266.455 361.926C265.919 362.727 265.157 363.352 264.265 363.721C263.373 364.09 262.392 364.186 261.446 363.998C260.499 363.81 259.629 363.346 258.947 362.664C258.264 361.983 257.8 361.114 257.611 360.169C257.423 359.223 257.52 358.243 257.889 357.352C258.258 356.462 258.884 355.7 259.686 355.165C260.489 354.629 261.432 354.343 262.398 354.343C263.692 354.343 264.933 354.857 265.848 355.771C266.763 356.685 267.278 357.925 267.278 359.218Z" fill="#474242"/>
<path d="M420.583 341.452C421.925 344.12 423.12 346.801 424.377 349.482C425.634 352.163 426.817 354.893 427.939 357.622C429.062 360.352 430.233 363.094 431.307 365.884C432.38 368.675 433.466 371.466 434.454 374.415L430.087 370.308C432.633 371.177 435.301 371.637 437.992 371.673C441.114 371.757 444.237 371.614 447.337 371.246C450.558 370.905 453.803 370.369 457.097 369.76C460.391 369.15 463.685 368.395 466.857 367.651L469.749 374.671C466.574 376.414 463.29 377.948 459.916 379.265C456.536 380.619 453.077 381.767 449.558 382.701C445.899 383.686 442.159 384.339 438.383 384.651C434.17 385.059 429.919 384.713 425.829 383.627L422.962 382.835L421.4 379.484C419.058 374.354 416.52 369.089 414.08 363.837C412.86 361.205 411.579 358.561 410.359 355.916C409.139 353.272 407.919 350.615 406.699 347.959L420.583 341.452Z" fill="#FFC3BD"/>
<path d="M462.881 369.796L467.675 365.117L475.288 373.342C475.288 373.342 472.531 378.156 465.675 375.353L462.881 369.796Z" fill="#FFC3BD"/>
<path d="M474.91 362.021L479.107 368.858L475.3 373.342L467.688 365.117L474.91 362.021Z" fill="#FFC3BD"/>
<path d="M399.037 330.496C408.797 326.731 416.361 332.348 428.695 347.898L414.251 362.728C414.251 362.728 380.005 337.783 399.037 330.496Z" fill="#263238"/>
<path opacity="0.2" d="M417.363 346.582C412.751 343.596 408.737 344.437 405.346 347.215C406.627 351.956 409.909 357.391 413.068 361.838C413.813 362.423 414.288 362.74 414.288 362.74L422.34 354.466C422.13 352.871 421.576 351.34 420.717 349.979C419.858 348.618 418.713 347.459 417.363 346.582Z" fill="black"/>
<path d="M473.372 433.87L485.06 432.517L484.084 408.584L472.408 409.924L473.372 433.87Z" fill="#FFC3BD"/>
<path d="M485.158 427.484L471.994 427.667C471.781 427.678 471.578 427.765 471.423 427.913C471.269 428.06 471.173 428.259 471.152 428.471L469.664 438.817C469.62 439.061 469.629 439.312 469.691 439.553C469.753 439.793 469.866 440.018 470.022 440.211C470.178 440.404 470.374 440.561 470.596 440.672C470.819 440.782 471.063 440.844 471.311 440.852C475.398 440.718 477.277 440.414 482.437 440.328C485.622 440.328 495.211 440.511 499.603 440.45C503.995 440.389 504.288 435.576 502.47 435.149C494.308 433.321 489.611 430.701 486.89 428.167C486.426 427.719 485.803 427.474 485.158 427.484Z" fill="#263238"/>
<path d="M487.952 424.438C488.136 424.368 488.334 424.344 488.53 424.367C488.725 424.39 488.912 424.461 489.074 424.572C489.203 424.635 489.314 424.73 489.397 424.847C489.48 424.964 489.533 425.1 489.55 425.242C489.696 426.461 487.11 428.654 486.756 428.898C486.721 428.923 486.678 428.937 486.634 428.937C486.59 428.937 486.548 428.923 486.512 428.898C486.471 428.876 486.437 428.842 486.415 428.801C486.394 428.76 486.385 428.713 486.39 428.666C486.476 427.35 486.781 425.01 487.818 424.486L487.952 424.438ZM486.89 428.167C487.915 427.277 489.184 425.937 489.099 425.266C489.099 425.193 489.099 425.084 488.891 424.986C488.771 424.898 488.629 424.845 488.481 424.832C488.332 424.82 488.183 424.847 488.049 424.913C487.488 425.218 487.061 426.424 486.89 428.167Z" fill="#441582"/>
<path d="M487.829 427.728C488.261 427.501 488.734 427.362 489.22 427.321C489.706 427.279 490.195 427.334 490.659 427.484C490.819 427.585 490.942 427.734 491.01 427.909C491.078 428.085 491.088 428.278 491.038 428.459C491.013 428.631 490.948 428.794 490.848 428.935C490.748 429.077 490.617 429.194 490.464 429.276C489.244 429.946 486.658 428.947 486.548 428.91C486.51 428.893 486.476 428.867 486.449 428.836C486.422 428.804 486.401 428.767 486.389 428.727C486.381 428.687 486.384 428.646 486.397 428.608C486.41 428.569 486.432 428.535 486.463 428.508C486.87 428.171 487.332 427.907 487.829 427.728ZM490.098 428.947L490.232 428.886C490.328 428.83 490.41 428.755 490.474 428.664C490.537 428.574 490.579 428.47 490.598 428.362C490.598 428.069 490.537 427.96 490.44 427.911C489.854 427.533 488.061 428.02 487.097 428.642C488.05 429.02 489.089 429.126 490.098 428.947Z" fill="#441582"/>
<path opacity="0.2" d="M472.408 409.937L484.084 408.584L484.584 420.928L472.847 420.977L472.408 409.937Z" fill="black"/>
<path d="M415.104 396.044C415.104 396.044 445.434 367.87 465.124 367.444C479.496 367.139 489.768 414.616 489.768 414.616L472.688 414.945C472.688 414.945 469.687 398.152 458.524 393.522C442.396 417.699 376.65 465.48 382.884 413.677C392.644 410.009 415.104 396.044 415.104 396.044Z" fill="#441582"/>
<path opacity="0.2" d="M415.104 396.044C415.104 396.044 445.434 367.87 465.124 367.444C479.496 367.139 489.768 414.616 489.768 414.616L472.688 414.945C472.688 414.945 469.687 398.152 458.524 393.522C442.396 417.699 376.65 465.48 382.884 413.677C392.644 410.009 415.104 396.044 415.104 396.044Z" fill="black"/>
<path d="M489.708 416.968L469.627 418.893L469.688 411.582L490.928 409.059L489.708 416.968Z" fill="#263238"/>
<path d="M375.284 415.469C375.284 415.469 362.242 390.025 360.644 349.043C360.278 339.392 368.977 330.289 378.944 329.777C387.313 329.338 396.17 329.229 403.344 329.253C410.518 329.278 416.008 334.03 416.825 340.927C418.631 356.135 418.948 379.228 428.281 406.731L375.284 415.469Z" fill="#263238"/>
<path opacity="0.2" d="M366.756 349.25C373.942 341.147 376.418 343.73 377.492 344.705C387.447 353.71 372.832 381.75 369.904 385.881C367.846 375.409 366.623 364.79 366.244 354.125C366.169 352.483 366.341 350.84 366.756 349.25Z" fill="black"/>
<path d="M388.656 305.417C387.851 312.887 385.875 324.354 380.787 329.68C384.789 333.445 391.304 337.15 400.563 338.697C405.346 336.723 405.98 332.324 403.662 329.265C395.488 327.84 395.586 325.524 398.672 320.321L388.656 305.417Z" fill="#FFC3BD"/>
<path opacity="0.2" d="M392.742 311.499L398.671 320.309C397.885 321.522 397.273 322.838 396.854 324.221C393.95 323.002 390.754 318.566 391.388 315.301C391.61 313.963 392.068 312.675 392.742 311.499Z" fill="black"/>
<path d="M410.078 291.647C414.873 296.729 424.95 296.753 420.619 290.733C416.288 284.714 406.345 287.687 410.078 291.647Z" fill="#263238"/>
<path d="M390.644 291.099C387.973 300.848 385.923 306.307 388.961 313.034C389.883 315.228 391.393 317.126 393.323 318.52C395.254 319.914 397.531 320.75 399.906 320.938C402.28 321.125 404.661 320.656 406.787 319.583C408.913 318.509 410.702 316.871 411.958 314.85C416.838 307.148 420.425 292.586 412.604 285.189C410.984 283.536 408.953 282.344 406.719 281.735C404.485 281.126 402.129 281.123 399.893 281.724C397.657 282.326 395.622 283.512 393.996 285.159C392.371 286.807 391.214 288.857 390.644 291.099Z" fill="#FFC3BD"/>
<path d="M388.461 300.141C389.681 299.922 395.708 298.094 398.648 295.267C401.954 292.086 401.978 289.003 401.088 287.602C400.197 286.2 393.219 283.507 389.961 284.129C384.813 285.116 386.082 294.219 386.155 296.68C386.194 297.411 386.428 298.117 386.834 298.726C387.239 299.335 387.801 299.823 388.461 300.141Z" fill="#FFC3BD"/>
<path opacity="0.7" d="M388.461 300.141C389.681 299.922 395.708 298.094 398.648 295.267C401.954 292.086 401.978 289.003 401.088 287.602C400.197 286.2 393.219 283.507 389.961 284.129C384.813 285.116 386.082 294.219 386.155 296.68C386.194 297.411 386.428 298.117 386.834 298.726C387.239 299.335 387.801 299.823 388.461 300.141Z" fill="#263238"/>
<path d="M383.349 300.811C384.298 302.906 386.001 304.567 388.119 305.466C390.925 306.6 392.524 304.248 391.914 301.384C391.365 298.862 389.242 295.218 386.35 295.291C383.459 295.364 382.202 298.228 383.349 300.811Z" fill="#FFC3BD"/>
<path d="M392.522 287.041C404.966 289.698 413.811 296.692 419.692 292.488C423.852 289.515 421.119 284.092 416.349 280.168C412.274 276.817 406.589 275.781 404.881 273.04C404.682 273.951 404.759 274.902 405.102 275.77C405.446 276.638 406.04 277.384 406.809 277.914C406.809 277.914 395.572 276.184 392.461 273.259C391.717 275.001 394.596 278.365 394.596 278.365C394.596 278.365 391.424 281.375 382.396 277.975C382.933 280.887 385.446 285.53 392.522 287.041Z" fill="#263238"/>
<path d="M417.24 293.475H416.752V292.842C417.827 292.975 418.916 292.753 419.852 292.209C420.789 291.666 421.521 290.831 421.937 289.832C422.404 288.496 422.439 287.048 422.036 285.692C421.633 284.336 420.813 283.141 419.692 282.276C418.614 281.439 417.439 280.735 416.191 280.18C413.299 278.73 410.018 277.085 408.432 272.296L409.029 272.101C410.53 276.634 413.556 278.194 416.484 279.608C417.788 280.188 419.017 280.925 420.144 281.801C421.376 282.744 422.277 284.053 422.715 285.541C423.154 287.028 423.108 288.616 422.584 290.075C422.155 291.125 421.411 292.016 420.454 292.625C419.497 293.234 418.374 293.531 417.24 293.475Z" fill="#263238"/>
<path d="M404.748 300.568C404.48 301.335 404.675 302.128 405.163 302.323C405.651 302.517 406.273 302.054 406.541 301.287C406.81 300.519 406.615 299.727 406.127 299.532C405.639 299.337 405.004 299.776 404.748 300.568Z" fill="#263238"/>
<path d="M413.945 303.346C413.689 304.114 413.872 304.894 414.372 305.089C414.873 305.284 415.483 304.833 415.739 304.053C415.995 303.273 415.824 302.505 415.324 302.298C414.824 302.091 414.214 302.566 413.945 303.346Z" fill="#263238"/>
<path d="M410.567 302.408C410.663 305.137 411.123 307.842 411.934 310.45C410.153 311.182 408.066 309.695 408.066 309.695L410.567 302.408Z" fill="#ED847E"/>
<path d="M403.101 311.547C401.449 310.637 400.221 309.114 399.685 307.306C399.676 307.277 399.674 307.246 399.677 307.215C399.681 307.184 399.692 307.154 399.708 307.128C399.724 307.101 399.746 307.079 399.771 307.061C399.797 307.044 399.826 307.032 399.856 307.026C399.887 307.019 399.918 307.018 399.949 307.024C399.98 307.029 400.009 307.041 400.036 307.058C400.062 307.075 400.084 307.097 400.102 307.123C400.119 307.149 400.131 307.178 400.137 307.209C400.449 308.192 400.979 309.091 401.686 309.842C402.394 310.593 403.261 311.176 404.224 311.547C404.284 311.571 404.331 311.618 404.356 311.678C404.382 311.737 404.382 311.804 404.358 311.864C404.35 311.894 404.336 311.922 404.316 311.945C404.297 311.969 404.272 311.988 404.244 312.001C404.216 312.013 404.185 312.02 404.154 312.019C404.123 312.019 404.093 312.012 404.065 311.998C403.734 311.87 403.412 311.719 403.101 311.547Z" fill="#263238"/>
<path d="M402.246 295.522C402.171 295.482 402.108 295.424 402.063 295.352C401.994 295.247 401.969 295.118 401.994 294.995C402.019 294.872 402.092 294.763 402.197 294.694C402.816 294.275 403.529 294.017 404.272 293.943C405.016 293.868 405.766 293.98 406.455 294.267C406.514 294.294 406.566 294.331 406.61 294.378C406.654 294.425 406.689 294.48 406.711 294.54C406.734 294.6 406.745 294.663 406.742 294.728C406.74 294.792 406.726 294.855 406.699 294.913C406.675 294.969 406.641 295.02 406.597 295.062C406.553 295.104 406.501 295.137 406.444 295.159C406.387 295.181 406.326 295.191 406.265 295.188C406.204 295.186 406.144 295.171 406.089 295.145C405.539 294.932 404.945 294.855 404.359 294.921C403.773 294.987 403.211 295.193 402.722 295.522C402.65 295.564 402.568 295.586 402.484 295.586C402.401 295.586 402.318 295.564 402.246 295.522Z" fill="#263238"/>
<path d="M417.081 301.067C417.006 301.041 416.938 300.998 416.883 300.941C416.827 300.884 416.787 300.814 416.764 300.738C416.607 300.145 416.317 299.595 415.915 299.13C415.514 298.665 415.011 298.298 414.446 298.057C414.325 298.015 414.225 297.929 414.166 297.816C414.107 297.702 414.093 297.571 414.129 297.448C414.144 297.389 414.171 297.333 414.209 297.285C414.247 297.237 414.294 297.198 414.348 297.169C414.402 297.14 414.461 297.123 414.522 297.119C414.583 297.114 414.644 297.123 414.702 297.143C415.42 297.432 416.061 297.884 416.574 298.464C417.086 299.044 417.456 299.735 417.654 300.482C417.675 300.541 417.684 300.604 417.68 300.667C417.675 300.729 417.658 300.79 417.63 300.846C417.601 300.902 417.562 300.951 417.514 300.991C417.465 301.032 417.41 301.061 417.349 301.079C417.26 301.1 417.168 301.096 417.081 301.067Z" fill="#263238"/>
<path d="M513.913 439.561L520.867 429.459L502.14 413.166L495.186 423.268L513.913 439.561Z" fill="#FFC3BD"/>
<path d="M516.061 424.681L507.899 434.832C507.756 435.003 507.678 435.219 507.678 435.442C507.678 435.664 507.756 435.88 507.899 436.051L514.255 443.947C514.406 444.135 514.597 444.287 514.815 444.391C515.032 444.496 515.271 444.55 515.512 444.55C515.753 444.55 515.991 444.496 516.209 444.391C516.426 444.287 516.618 444.135 516.768 443.947C519.343 440.633 521.063 438.086 524.369 433.967C526.406 431.432 532.811 424.023 535.63 420.562C538.448 417.102 535.227 413.69 533.751 414.859C527.126 420.087 521.234 423.292 517.671 423.78C517.041 423.87 516.467 424.191 516.061 424.681Z" fill="#263238"/>
<path d="M515.524 420.514C515.583 420.326 515.684 420.154 515.819 420.01C515.955 419.867 516.121 419.755 516.305 419.685C516.433 419.619 516.575 419.584 516.72 419.584C516.864 419.584 517.006 419.619 517.135 419.685C518.245 420.331 518.355 423.719 518.355 424.109C518.353 424.154 518.338 424.197 518.312 424.234C518.286 424.271 518.25 424.299 518.208 424.316C518.17 424.34 518.125 424.352 518.08 424.352C518.035 424.352 517.99 424.34 517.952 424.316C516.952 423.463 515.292 421.879 515.512 420.66C515.509 420.611 515.513 420.562 515.524 420.514ZM517.879 423.597C517.781 422.232 517.476 420.429 516.891 420.087C516.834 420.059 516.771 420.045 516.708 420.045C516.644 420.045 516.582 420.059 516.525 420.087C516.385 420.136 516.259 420.22 516.161 420.331C516.063 420.442 515.995 420.576 515.963 420.721C515.878 421.355 516.561 422.415 517.879 423.597Z" fill="#441582"/>
<path d="M518.109 422.585C518.39 421.549 518.926 420.428 519.597 420.148C519.774 420.079 519.968 420.07 520.15 420.12C520.333 420.171 520.494 420.279 520.61 420.428C520.732 420.552 520.823 420.702 520.878 420.867C520.933 421.032 520.95 421.207 520.927 421.379C520.756 422.719 518.39 424.23 518.28 424.291C518.245 424.313 518.205 424.324 518.164 424.324C518.123 424.324 518.083 424.313 518.048 424.291C518.009 424.279 517.976 424.254 517.952 424.221C517.928 424.189 517.914 424.149 517.914 424.108C517.893 423.593 517.959 423.079 518.109 422.585ZM520.427 421.476C520.427 421.476 520.427 421.391 520.427 421.342C520.442 421.233 520.431 421.123 520.395 421.019C520.359 420.915 520.299 420.821 520.22 420.745C520.024 420.526 519.878 420.538 519.768 420.587C519.122 420.83 518.438 422.561 518.353 423.694C519.235 423.158 519.952 422.391 520.427 421.476Z" fill="#441582"/>
<path opacity="0.2" d="M495.186 423.268L502.14 413.166L511.802 421.562L503.823 430.787L495.186 423.268Z" fill="black"/>
<path d="M394.328 411.752C394.328 411.752 447.642 357.646 471.64 380.8C486.585 395.228 508.545 415.103 508.545 415.103L495.82 427.472C495.82 427.472 463.588 410.351 455.194 400.894C411.152 450.077 371.795 453.44 375.333 415.518C381.576 413.852 387.921 412.594 394.328 411.752Z" fill="#441582"/>
<path d="M512.338 415.213L498.357 432.761L492.428 428.788L506.714 410.156L512.338 415.213Z" fill="#263238"/>
<path d="M375.467 345.607L376.516 367.785C376.712 371.441 376.943 375.097 377.224 378.753C377.37 380.544 377.566 382.311 377.761 384.005C377.871 384.858 377.98 385.687 378.115 386.442C378.249 387.198 378.395 387.904 378.493 388.331C378.498 388.396 378.498 388.461 378.493 388.526C378.292 388.164 378.007 387.855 377.663 387.624C377.464 387.48 377.241 387.373 377.004 387.307C376.87 387.307 376.797 387.307 376.858 387.307C377.857 387.461 378.877 387.395 379.847 387.112C383.074 386.308 386.216 385.194 389.229 383.786C392.486 382.36 395.731 380.715 398.989 379.009C402.246 377.303 405.504 375.487 408.663 373.72L413.226 379.813C407.506 385.13 401.293 389.892 394.67 394.034C392.974 395.07 391.217 396.069 389.363 397.007C387.426 398.005 385.415 398.853 383.348 399.542C382.172 399.93 380.969 400.231 379.749 400.444C378.25 400.723 376.719 400.797 375.199 400.663C374.217 400.571 373.249 400.358 372.32 400.029C371.199 399.636 370.146 399.073 369.196 398.36C368.207 397.594 367.353 396.667 366.671 395.618C366.36 395.139 366.082 394.638 365.841 394.119L365.378 392.998C364.949 391.838 364.587 390.654 364.292 389.452C364.024 388.367 363.804 387.356 363.609 386.345C363.206 384.334 362.901 382.372 362.633 380.434C362.072 376.559 361.669 372.733 361.327 368.919C360.644 361.29 360.242 353.747 360.107 346.082L375.467 345.607Z" fill="#FFC3BD"/>
<path d="M371.722 331.313C365.976 331.959 357.375 337.406 357.082 362.728L381.726 360.791C381.726 360.791 393.34 328.839 371.722 331.313Z" fill="#263238"/>
<path d="M429.391 360.888L420.241 361.485C419.701 361.56 419.196 361.795 418.791 362.16C418.386 362.525 418.101 363.003 417.972 363.532L413.689 383.615C413.617 383.833 413.6 384.066 413.641 384.293C413.682 384.519 413.779 384.732 413.923 384.912C414.068 385.091 414.255 385.231 414.468 385.32C414.68 385.408 414.912 385.442 415.141 385.418L424.291 384.821C424.832 384.749 425.339 384.515 425.744 384.15C426.15 383.784 426.434 383.304 426.56 382.774L430.843 362.691C430.915 362.473 430.932 362.24 430.891 362.013C430.85 361.787 430.753 361.574 430.609 361.395C430.464 361.215 430.277 361.075 430.064 360.986C429.852 360.898 429.62 360.864 429.391 360.888Z" fill="#441582"/>
<path d="M409.407 373.244L416.983 370.612L415.116 382.469C415.116 382.469 406.674 384.322 405.979 379.788L407.199 375.755C407.353 375.197 407.631 374.681 408.014 374.246C408.396 373.811 408.873 373.469 409.407 373.244Z" fill="#FFC3BD"/>
<path d="M425.646 371.612L422.364 382.165L415.117 382.469L416.984 370.612L425.646 371.612Z" fill="#FFC3BD"/>
<path d="M163.225 123.078C157.271 109.272 189.735 94.8192 198.91 116.315C214.489 123.078 194.579 151.837 199.081 156.712C203.582 161.586 206.974 155.676 206.974 155.676C206.974 155.676 211.525 167.789 199.922 177.489C189.528 186.202 158.259 188.566 158.186 171.396C158.088 149.071 171.033 141.175 163.225 123.078Z" fill="#263238"/>
<path d="M193.078 412.933L184.343 418.015L163.371 394.069L174.253 384.26L193.078 412.933Z" fill="#FF8B7B"/>
<path d="M183.342 415.822L192.357 408.912C192.498 408.786 192.681 408.717 192.87 408.717C193.059 408.717 193.241 408.786 193.382 408.912L199.36 414.81C199.506 414.975 199.616 415.17 199.681 415.38C199.747 415.59 199.767 415.812 199.741 416.031C199.714 416.25 199.642 416.46 199.528 416.649C199.414 416.838 199.261 417 199.08 417.126C195.908 419.478 194.261 420.465 190.296 423.511C187.856 425.376 182.976 429.47 179.633 432.041C176.29 434.612 173.752 431.651 174.936 430.299C180.279 424.206 181.438 420.55 182.256 417.296C182.441 416.696 182.823 416.177 183.342 415.822Z" fill="#263238"/>
<path d="M181.316 419.428C180.689 420.012 179.888 420.376 179.035 420.464C178.831 420.456 178.633 420.397 178.459 420.293C178.284 420.188 178.138 420.042 178.034 419.867C177.975 419.757 177.943 419.633 177.943 419.507C177.943 419.382 177.975 419.258 178.034 419.148C178.644 417.929 182.988 416.967 183.476 416.857C183.523 416.85 183.571 416.856 183.614 416.875C183.657 416.895 183.694 416.927 183.72 416.967C183.743 417.007 183.756 417.054 183.756 417.101C183.756 417.148 183.743 417.194 183.72 417.235C182.987 418.038 182.183 418.772 181.316 419.428ZM178.73 418.977C178.602 419.065 178.498 419.182 178.425 419.319C178.398 419.36 178.383 419.409 178.383 419.459C178.383 419.509 178.398 419.557 178.425 419.599C178.488 419.716 178.581 419.815 178.695 419.886C178.808 419.956 178.938 419.996 179.071 420.001C179.864 420.001 181.243 419.099 182.805 417.466C181.373 417.743 179.996 418.254 178.73 418.977Z" fill="#441582"/>
<path d="M183.611 417.26H183.514C182.294 417.589 179.158 417.418 178.634 416.455C178.524 416.236 178.487 415.858 178.975 415.407C179.323 415.084 179.781 414.905 180.256 414.908C181.854 414.908 183.562 416.797 183.623 416.882C183.644 416.915 183.655 416.953 183.655 416.992C183.655 417.03 183.644 417.068 183.623 417.101C183.635 417.154 183.631 417.209 183.611 417.26ZM179.414 415.688L179.305 415.785C178.987 416.078 179.061 416.224 179.085 416.273C179.378 416.857 181.61 417.138 183.001 416.943C182.273 416.148 181.305 415.613 180.244 415.42C179.945 415.413 179.653 415.508 179.414 415.688Z" fill="#441582"/>
<path d="M161.32 173.139C160.747 175.759 160.1 178.123 159.368 180.572C158.636 183.021 157.88 185.446 157.001 187.786C155.313 192.594 153.333 197.294 151.072 201.861L149.279 205.273C148.632 206.394 148.059 207.515 147.327 208.624L146.277 210.269C145.911 210.83 145.631 211.329 145.131 211.987C144.887 212.304 144.643 212.621 144.313 212.999C143.899 213.487 143.433 213.928 142.922 214.315C142.306 214.786 141.594 215.119 140.836 215.29C140.484 215.369 140.124 215.41 139.763 215.412C139.321 215.416 138.881 215.355 138.457 215.229C137.666 215.015 136.946 214.594 136.371 214.01C135.795 213.434 135.375 212.721 135.151 211.939C135.038 211.577 134.96 211.206 134.919 210.83C134.824 209.951 134.824 209.064 134.919 208.185C135.005 207.454 135.127 206.772 135.249 206.114C135.493 204.785 135.81 203.543 136.139 202.3C136.824 199.853 137.639 197.445 138.579 195.085L143.459 196.158L143.13 203.469C143.13 204.688 143.057 205.833 143.044 206.955C143.044 207.515 143.044 208.064 143.044 208.551C143.042 208.902 143.091 209.251 143.191 209.587C143.191 209.587 143.191 209.587 143.191 209.367C143.04 208.906 142.781 208.489 142.434 208.149C141.962 207.668 141.374 207.316 140.726 207.125C140.376 207.031 140.016 206.978 139.653 206.967C139.366 206.972 139.08 207.004 138.799 207.064C138.362 207.171 137.948 207.357 137.579 207.613C137.323 207.795 137.42 207.698 137.469 207.613L137.75 207.137L139.384 204.213C139.933 203.189 140.434 202.141 140.97 201.105L142.471 197.937C144.374 193.635 146.131 189.212 147.595 184.703C148.351 182.449 149.047 180.17 149.742 177.891C150.438 175.612 151.06 173.26 151.609 171.104L161.32 173.139Z" fill="#FF8B7B"/>
<path d="M157.148 160.453C153.61 161.026 147.998 183.484 147.998 183.484L156.16 189.76C156.16 189.76 164.346 173.528 164.7 166.229C164.944 160.94 159.82 160.026 157.148 160.453Z" fill="#FF8B7B"/>
<path d="M144.35 197.242L142.971 186.08L136.566 195.463C136.839 196.594 137.435 197.621 138.282 198.419C139.129 199.218 140.19 199.753 141.337 199.959L144.35 197.242Z" fill="#FF8B7B"/>
<path d="M189.113 431.883L179.353 432.212L177.486 398.188L191.028 398.383L189.113 431.883Z" fill="#FF8B7B"/>
<path d="M178.694 429.104L189.674 429.031C189.858 429.024 190.037 429.089 190.173 429.212C190.31 429.335 190.393 429.506 190.406 429.689L191.065 438.329C191.071 438.783 190.898 439.221 190.582 439.547C190.267 439.873 189.835 440.062 189.381 440.072C185.575 440.072 183.745 439.816 178.938 439.852C175.973 439.852 171.618 440.206 167.543 440.242C163.468 440.279 163.505 436.233 165.237 435.855C172.984 434.162 174.338 431.895 177.059 429.762C177.518 429.372 178.092 429.141 178.694 429.104Z" fill="#263238"/>
<path d="M156.552 160.38C156.552 160.38 151.672 161.598 151.672 219.274L190.822 222.735C192.786 206.662 194.372 196.779 207.34 164.584C202.02 162.957 196.583 161.735 191.078 160.928C185.203 159.974 179.266 159.448 173.315 159.356C165.507 159.368 156.552 160.38 156.552 160.38Z" fill="#441582"/>
<path opacity="0.2" d="M199.569 171.944L201.655 179.049C200.02 183.448 198.666 187.335 197.532 190.833C196.667 184.465 197.366 177.982 199.569 171.944Z" fill="black"/>
<path d="M142.971 186.08L136.566 195.463L144.35 195.012L148.498 186.433L142.971 186.08Z" fill="#FF8B7B"/>
<path d="M147.035 207.661L154.355 207.551C154.596 207.547 154.833 207.491 155.051 207.388C155.269 207.285 155.463 207.137 155.62 206.954C155.776 206.771 155.892 206.557 155.96 206.326C156.028 206.095 156.046 205.852 156.014 205.614L153.732 189.223C153.678 188.812 153.474 188.436 153.159 188.166C152.843 187.896 152.439 187.752 152.024 187.761L144.704 187.871C144.463 187.872 144.225 187.925 144.006 188.025C143.787 188.126 143.592 188.273 143.435 188.455C143.278 188.638 143.161 188.852 143.094 189.084C143.027 189.315 143.01 189.558 143.045 189.796L145.327 206.186C145.38 206.599 145.584 206.977 145.899 207.249C146.214 207.521 146.618 207.667 147.035 207.661Z" fill="#263238"/>
<path d="M192.541 140.638C190.479 146.292 187.661 156.724 191.016 160.916C185.18 165.789 178.64 169.754 171.618 172.675C167.531 163.146 173.253 159.344 173.253 159.344C179.878 158.381 180.488 153.604 180.097 149.034L192.541 140.638Z" fill="#FF8B7B"/>
<path d="M165.726 134.155C164.701 151.082 154.514 155.932 156.905 164.62C160.285 176.806 174.071 167.265 174.071 167.265C174.071 167.265 166.568 169.702 166.092 163.779C165.702 158.905 183.026 159.66 178.219 148.193C175.132 140.809 165.726 134.155 165.726 134.155Z" fill="#263238"/>
<path opacity="0.2" d="M188.991 144.916L180.109 149.034C180.207 150.105 180.207 151.181 180.109 152.251C181.964 152.422 186.771 151.033 188.588 148.035C189.092 147.077 189.235 145.97 188.991 144.916Z" fill="black"/>
<path d="M194.079 124.724C194.97 134.326 195.555 138.384 191.493 144.014C185.393 152.483 173.376 151.484 169.63 142.32C166.251 134.082 165.36 119.752 174.108 114.524C176.029 113.359 178.218 112.704 180.464 112.622C182.711 112.54 184.942 113.034 186.943 114.056C188.945 115.078 190.652 116.595 191.901 118.463C193.15 120.33 193.9 122.485 194.079 124.724Z" fill="#FF8B7B"/>
<path d="M191.956 115.085C184.367 109.881 178.06 119.874 191.529 129.586C204.997 139.298 200.581 120.995 191.956 115.085Z" fill="#263238"/>
<path d="M187.917 112.294C191.052 115.109 172.386 125.491 162.236 122.043C152.085 118.594 160.235 110.856 163.931 109.857C160.759 112.915 166.31 117.558 168.994 114.658C171.678 111.758 181.621 106.652 187.917 112.294Z" fill="#263238"/>
<path d="M151.622 219.274C151.622 219.274 130.967 306.636 132.785 328.692C134.896 354.478 163.127 396.044 163.127 396.044L176.095 384.284C176.095 384.284 163.224 350.237 153.696 328.058C156.746 305.88 183.708 243.22 183.708 222.114L151.622 219.274Z" fill="#441582"/>
<path opacity="0.6" d="M151.622 219.274C151.622 219.274 130.967 306.636 132.785 328.692C134.896 354.478 163.127 396.044 163.127 396.044L176.095 384.284C176.095 384.284 163.224 350.237 153.696 328.058C156.746 305.88 183.708 243.22 183.708 222.114L151.622 219.274Z" fill="black"/>
<path d="M178.486 386.039L163.163 397.445L159.234 394.46L176.046 381.213L178.486 386.039Z" fill="#441582"/>
<path opacity="0.2" d="M166.909 257.697C155.527 273.441 154.978 302.395 155.685 318.626C159.589 303.686 167.776 281.374 174.303 261.267C174.144 253.566 172.229 250.324 166.909 257.697Z" fill="black"/>
<path d="M158.967 219.348C158.967 219.348 166.531 294.791 169.056 320.26C172.057 350.493 176.462 398.981 176.462 398.981L191.028 398.372C191.028 398.372 194.225 357.268 191.858 330.13C192.285 294.182 197.592 245.304 190.76 222.687L158.967 219.348Z" fill="#441582"/>
<path opacity="0.6" d="M158.967 219.348C158.967 219.348 166.531 294.791 169.056 320.26C172.057 350.493 176.462 398.981 176.462 398.981L191.028 398.372C191.028 398.372 194.225 357.268 191.858 330.13C192.285 294.182 197.592 245.304 190.76 222.687L158.967 219.348Z" fill="black"/>
<path d="M192.139 401.04L175.425 400.565L174.254 395.313L193.164 394.789L192.139 401.04Z" fill="#441582"/>
<path d="M179.12 130.025C179.242 130.792 178.925 131.487 178.413 131.572C177.9 131.657 177.4 131.085 177.278 130.354C177.156 129.622 177.473 128.891 177.986 128.806C178.498 128.721 178.998 129.245 179.12 130.025Z" fill="#263238"/>
<path d="M170.349 131.377C170.471 132.157 170.154 132.852 169.641 132.925C169.129 132.998 168.629 132.437 168.507 131.706C168.385 130.975 168.702 130.232 169.214 130.159C169.727 130.086 170.227 130.61 170.349 131.377Z" fill="#263238"/>
<path d="M169.434 130.122L167.494 129.878C167.494 129.878 168.678 131.182 169.434 130.122Z" fill="#263238"/>
<path d="M173.227 132.145C172.807 134.018 172.134 135.826 171.227 137.519C171.666 137.739 172.148 137.86 172.638 137.875C173.129 137.89 173.618 137.797 174.069 137.604L173.227 132.145Z" fill="#FF5652"/>
<path d="M179.121 139.737C178.725 139.877 178.316 139.979 177.901 140.041C177.841 140.052 177.779 140.039 177.729 140.005C177.679 139.971 177.644 139.918 177.632 139.858C177.627 139.828 177.628 139.797 177.635 139.767C177.642 139.737 177.655 139.708 177.673 139.683C177.691 139.658 177.714 139.637 177.741 139.621C177.767 139.605 177.797 139.595 177.827 139.59C178.797 139.465 179.723 139.111 180.529 138.558C181.335 138.005 181.998 137.269 182.463 136.41C182.492 136.357 182.539 136.317 182.595 136.297C182.651 136.277 182.713 136.278 182.768 136.3C182.796 136.312 182.822 136.33 182.843 136.351C182.865 136.373 182.881 136.399 182.893 136.427C182.904 136.455 182.91 136.486 182.909 136.516C182.909 136.547 182.902 136.577 182.89 136.605C182.091 138.1 180.738 139.224 179.121 139.737Z" fill="#263238"/>
<path d="M196.749 131.279C196.683 132.212 196.434 133.123 196.015 133.96C195.597 134.796 195.017 135.542 194.309 136.154C192.43 137.762 190.442 136.349 190.088 134.021C189.758 131.937 190.356 128.586 192.662 127.928C193.162 127.775 193.693 127.747 194.207 127.848C194.721 127.95 195.201 128.176 195.606 128.508C196.011 128.84 196.327 129.267 196.526 129.75C196.726 130.234 196.802 130.759 196.749 131.279Z" fill="#FF8B7B"/>
<path d="M183.109 125.223C183.049 125.235 182.986 125.235 182.925 125.222C182.864 125.21 182.807 125.185 182.756 125.15C182.289 124.804 181.748 124.574 181.175 124.479C180.602 124.383 180.015 124.426 179.462 124.602C179.406 124.625 179.346 124.637 179.285 124.637C179.224 124.637 179.164 124.625 179.108 124.601C179.052 124.577 179.002 124.542 178.96 124.498C178.918 124.454 178.885 124.403 178.864 124.346C178.82 124.233 178.822 124.107 178.87 123.995C178.917 123.883 179.007 123.795 179.12 123.749C179.814 123.513 180.555 123.448 181.28 123.561C182.004 123.673 182.691 123.959 183.28 124.395C183.379 124.464 183.447 124.568 183.47 124.687C183.493 124.805 183.468 124.928 183.402 125.028C183.33 125.125 183.227 125.194 183.109 125.223Z" fill="#263238"/>
<path d="M166.543 128.014C166.489 128.038 166.431 128.05 166.372 128.05C166.313 128.05 166.255 128.038 166.201 128.014C166.146 127.989 166.097 127.953 166.055 127.909C166.014 127.864 165.983 127.812 165.962 127.755C165.942 127.699 165.933 127.638 165.936 127.578C165.94 127.518 165.955 127.459 165.982 127.404C166.271 126.733 166.718 126.14 167.285 125.678C167.852 125.215 168.522 124.896 169.239 124.748C169.356 124.739 169.472 124.775 169.563 124.848C169.654 124.922 169.715 125.027 169.732 125.142C169.749 125.258 169.721 125.376 169.655 125.473C169.588 125.569 169.488 125.636 169.373 125.662C168.808 125.789 168.28 126.049 167.835 126.42C167.389 126.79 167.039 127.262 166.811 127.794C166.784 127.847 166.746 127.894 166.7 127.932C166.653 127.969 166.6 127.997 166.543 128.014Z" fill="#263238"/>
<path d="M209.913 176.282C210.096 178.049 210.194 179.597 210.242 181.242C210.291 182.887 210.328 184.471 210.316 186.116C210.267 189.366 210.059 192.615 209.693 195.865C209.319 199.154 208.708 202.413 207.863 205.614C207.428 207.267 206.898 208.895 206.277 210.488C205.972 211.292 205.631 212.097 205.277 212.925C205.277 212.925 205.094 213.315 204.972 213.535C204.843 213.787 204.692 214.028 204.521 214.254C204.219 214.699 203.867 215.108 203.471 215.472C202.829 216.021 202.11 216.473 201.336 216.813C200.231 217.275 199.064 217.57 197.872 217.69C196.92 217.795 195.962 217.836 195.005 217.812C193.281 217.765 191.562 217.615 189.856 217.361C186.661 216.856 183.496 216.173 180.377 215.314C177.315 214.473 174.277 213.547 171.312 212.56C168.348 211.573 165.395 210.476 162.455 209.245L163.98 204.566C166.945 205.212 169.958 205.894 172.959 206.467C175.96 207.04 178.949 207.685 181.926 208.124C184.903 208.563 187.88 209.014 190.759 209.196C192.135 209.305 193.516 209.329 194.895 209.27C195.484 209.242 196.071 209.176 196.652 209.075C197.003 209.02 197.344 208.913 197.664 208.758C197.664 208.758 197.664 208.758 197.481 208.855C197.369 208.942 197.27 209.044 197.188 209.16L197.042 209.379C197.042 209.379 196.932 209.623 197.042 209.465C197.274 208.831 197.506 208.246 197.701 207.539C198.116 206.223 198.457 204.87 198.762 203.493C199.333 200.676 199.741 197.828 199.982 194.963C200.251 192.063 200.336 189.114 200.336 186.165C200.336 184.691 200.336 183.216 200.336 181.742C200.336 180.267 200.202 178.744 200.116 177.428L209.913 176.282Z" fill="#FF8B7B"/>
<path d="M207.241 164.584C211.45 167.326 210.023 191.222 210.023 191.222L200.116 193.209C200.116 193.209 200.031 181.023 198.97 173.114C198.25 167.74 204.24 162.622 207.241 164.584Z" fill="#FF8B7B"/>
<path d="M173.325 430.238C173.206 430.08 173.126 429.896 173.09 429.702C173.054 429.507 173.063 429.307 173.118 429.117C173.141 428.976 173.198 428.843 173.286 428.73C173.373 428.617 173.487 428.528 173.618 428.471C174.838 427.947 177.62 429.836 177.937 430.043C177.973 430.068 178 430.104 178.015 430.146C178.031 430.187 178.033 430.232 178.022 430.274C178.012 430.32 177.989 430.362 177.957 430.396C177.925 430.431 177.884 430.456 177.839 430.469C176.558 430.774 174.277 431.164 173.423 430.335L173.325 430.238ZM177.205 430.14C175.985 429.421 174.399 428.605 173.777 428.922C173.72 428.949 173.671 428.99 173.635 429.041C173.598 429.092 173.576 429.152 173.569 429.214C173.525 429.354 173.518 429.504 173.55 429.647C173.582 429.791 173.652 429.923 173.752 430.031C174.216 430.445 175.485 430.494 177.205 430.165V430.14Z" fill="#441582"/>
<path d="M176.523 429.372C176.178 429.026 175.904 428.616 175.718 428.164C175.532 427.713 175.436 427.229 175.438 426.74C175.491 426.559 175.6 426.4 175.748 426.284C175.897 426.168 176.079 426.102 176.267 426.094C176.438 426.068 176.612 426.08 176.777 426.131C176.942 426.181 177.093 426.269 177.219 426.387C178.207 427.313 178.036 430.116 178.024 430.237C178.022 430.279 178.01 430.32 177.989 430.356C177.968 430.392 177.938 430.423 177.902 430.445C177.866 430.463 177.826 430.472 177.786 430.472C177.746 430.472 177.706 430.463 177.67 430.445C177.234 430.15 176.847 429.788 176.523 429.372ZM176.987 426.838C176.958 426.802 176.925 426.769 176.889 426.74C176.811 426.665 176.716 426.608 176.613 426.574C176.509 426.54 176.399 426.53 176.292 426.545C175.987 426.545 175.926 426.716 175.889 426.825C175.706 427.496 176.706 429.068 177.585 429.799C177.666 428.775 177.459 427.75 176.987 426.838Z" fill="#441582"/>
<path d="M191.724 220.469L192.151 224.125C192.248 224.405 191.882 224.661 191.431 224.612L151.171 221.054C150.817 221.054 150.549 220.822 150.561 220.603L150.793 217.045C150.793 216.801 151.147 216.618 151.525 216.655L191.163 220.164C191.274 220.162 191.385 220.189 191.483 220.242C191.582 220.296 191.665 220.374 191.724 220.469Z" fill="white"/>
<path d="M185.673 224.466L186.735 224.551C186.954 224.551 187.125 224.478 187.137 224.344L187.381 219.725C187.381 219.591 187.223 219.457 187.015 219.445L185.942 219.348C185.734 219.348 185.551 219.421 185.539 219.555L185.295 224.185C185.295 224.32 185.466 224.441 185.673 224.466Z" fill="#441582"/>
<path opacity="0.6" d="M185.673 224.466L186.735 224.551C186.954 224.551 187.125 224.478 187.137 224.344L187.381 219.725C187.381 219.591 187.223 219.457 187.015 219.445L185.942 219.348C185.734 219.348 185.551 219.421 185.539 219.555L185.295 224.185C185.295 224.32 185.466 224.441 185.673 224.466Z" fill="black"/>
<path d="M154.062 221.663L155.123 221.76C155.343 221.76 155.514 221.687 155.526 221.553L155.77 216.922C155.77 216.788 155.611 216.666 155.404 216.642L154.343 216.557C154.123 216.557 153.952 216.63 153.94 216.764L153.696 221.382C153.684 221.516 153.855 221.65 154.062 221.663Z" fill="#441582"/>
<path opacity="0.6" d="M154.062 221.663L155.123 221.76C155.343 221.76 155.514 221.687 155.526 221.553L155.77 216.922C155.77 216.788 155.611 216.666 155.404 216.642L154.343 216.557C154.123 216.557 153.952 216.63 153.94 216.764L153.696 221.382C153.684 221.516 153.855 221.65 154.062 221.663Z" fill="black"/>
<path d="M169.872 223.064L170.934 223.162C171.141 223.162 171.324 223.077 171.324 222.943L171.58 218.324C171.58 218.19 171.422 218.068 171.202 218.044L170.141 217.946C169.933 217.946 169.75 218.032 169.75 218.166L169.494 222.784C169.494 222.918 169.665 223.003 169.872 223.064Z" fill="#441582"/>
<path opacity="0.6" d="M169.872 223.064L170.934 223.162C171.141 223.162 171.324 223.077 171.324 222.943L171.58 218.324C171.58 218.19 171.422 218.068 171.202 218.044L170.141 217.946C169.933 217.946 169.75 218.032 169.75 218.166L169.494 222.784C169.494 222.918 169.665 223.003 169.872 223.064Z" fill="black"/>
<path d="M165.505 204.858L159.405 196.73L156.867 206.479C156.867 206.479 161.406 210.439 165.261 208.916L165.505 204.858Z" fill="#FF8B7B"/>
<path d="M151.598 194.939L149.902 203.164L158.137 207.369L159.443 196.73L151.598 194.939Z" fill="#FF8B7B"/>
<path d="M178.218 128.769L176.266 128.525C176.266 128.525 177.4 129.829 178.218 128.769Z" fill="#263238"/>
</svg>
