<svg width="641" height="519" viewBox="0 0 641 519" fill="none" xmlns="http://www.w3.org/2000/svg">
<path d="M641 460.228H0V460.553H641V460.228Z" fill="#EBEBEB"/>
<path d="M109.714 472.617H67.2539V472.943H109.714V472.617Z" fill="#EBEBEB"/>
<path d="M279.336 469.09H219.402V469.416H279.336V469.09Z" fill="#EBEBEB"/>
<path d="M169.211 482.677H144.609V483.003H169.211V482.677Z" fill="#EBEBEB"/>
<path d="M439.135 477.029H400.406V477.354H439.135V477.029Z" fill="#EBEBEB"/>
<path d="M475.315 477.029H450.547V477.354H475.315V477.029Z" fill="#EBEBEB"/>
<path d="M576.785 482.521H501.711V482.846H576.785V482.521Z" fill="#EBEBEB"/>
<path d="M303.833 402.184H56.2918C54.3526 402.18 52.4939 401.396 51.1239 400.002C49.7538 398.609 48.9844 396.721 48.9844 394.752V41.5033C49.0013 39.546 49.7782 37.6745 51.1464 36.2953C52.5146 34.9161 54.3636 34.1406 56.2918 34.1372H303.833C305.775 34.1372 307.637 34.9201 309.009 36.3138C310.382 37.7074 311.153 39.5975 311.153 41.5684V394.752C311.153 396.723 310.382 398.613 309.009 400.007C307.637 401.401 305.775 402.184 303.833 402.184ZM56.2918 34.3975C54.4376 34.4009 52.6604 35.1511 51.3505 36.4833C50.0406 37.8156 49.3049 39.621 49.3049 41.5033V394.752C49.3049 396.635 50.0406 398.44 51.3505 399.772C52.6604 401.105 54.4376 401.855 56.2918 401.858H303.833C305.689 401.855 307.467 401.105 308.779 399.773C310.091 398.441 310.83 396.636 310.833 394.752V41.5033C310.83 39.6198 310.091 37.8144 308.779 36.4825C307.467 35.1507 305.689 34.4009 303.833 34.3975H56.2918Z" fill="#EBEBEB"/>
<path d="M581.144 402.184H333.59C331.649 402.18 329.789 401.396 328.417 400.003C327.045 398.61 326.273 396.722 326.27 394.752V41.5033C326.29 39.5448 327.07 37.6733 328.44 36.2945C329.81 34.9156 331.66 34.1405 333.59 34.1372H581.144C583.07 34.144 584.916 34.921 586.281 36.2998C587.647 37.6787 588.422 39.5483 588.439 41.5033V394.752C588.439 396.719 587.671 398.605 586.304 399.998C584.936 401.391 583.081 402.177 581.144 402.184ZM333.59 34.3975C331.734 34.4009 329.956 35.1507 328.644 36.4825C327.332 37.8144 326.593 39.6198 326.59 41.5033V394.752C326.593 396.636 327.332 398.441 328.644 399.773C329.956 401.105 331.734 401.855 333.59 401.858H581.144C582.999 401.855 584.778 401.105 586.09 399.773C587.402 398.441 588.14 396.636 588.144 394.752V41.5033C588.14 39.6198 587.402 37.8144 586.09 36.4825C584.778 35.1507 582.999 34.4009 581.144 34.3975H333.59Z" fill="#EBEBEB"/>
<path d="M427.09 59.6652C432.496 38.0552 419.622 16.0877 398.335 10.5995C377.048 5.11124 355.408 18.1805 350.002 39.7905C344.596 61.4006 357.47 83.368 378.757 88.8563C400.044 94.3445 421.684 81.2753 427.09 59.6652Z" fill="#FAFAFA"/>
<path d="M545.914 66.6727C546.117 66.6473 546.313 66.5809 546.491 66.4775C552.194 62.9702 558.697 61.0283 565.362 60.8423C572.387 60.8423 576.208 63.7054 575.528 67.7659C575.485 67.9993 575.498 68.2397 575.564 68.4673C575.631 68.6948 575.75 68.903 575.912 69.0747C576.073 69.2463 576.273 69.3765 576.494 69.4544C576.714 69.5323 576.95 69.5558 577.182 69.5229C578.032 69.403 578.888 69.3421 579.746 69.3407C585.374 69.3407 587.63 72.347 584.784 76.0561C584.643 76.2383 584.489 76.4335 584.323 76.6157C584.185 76.765 584.018 76.8837 583.833 76.9643C583.647 77.0449 583.448 77.0858 583.246 77.0842H530.863C530.587 77.0891 530.316 77.0153 530.079 76.8711C529.842 76.7269 529.65 76.5182 529.525 76.2687C529.399 76.0192 529.345 75.7389 529.369 75.4597C529.392 75.1805 529.493 74.9137 529.658 74.6896C532.735 70.6681 539.632 67.3625 545.914 66.6727Z" fill="#F5F5F5"/>
<path d="M241.67 257.568C241.873 257.542 242.069 257.476 242.247 257.373C247.946 253.867 254.444 251.926 261.105 251.737C268.143 251.737 271.963 254.6 271.284 258.674C271.243 258.906 271.257 259.145 271.325 259.371C271.393 259.597 271.512 259.803 271.674 259.973C271.835 260.143 272.033 260.272 272.253 260.35C272.473 260.427 272.707 260.45 272.938 260.418C273.766 260.3 274.601 260.239 275.438 260.236C281.078 260.236 283.335 263.242 280.489 266.951C280.348 267.133 280.194 267.329 280.027 267.511C279.889 267.66 279.722 267.779 279.537 267.859C279.352 267.94 279.152 267.981 278.95 267.979H226.606C226.331 267.982 226.061 267.906 225.827 267.761C225.592 267.616 225.402 267.407 225.278 267.158C225.154 266.909 225.101 266.629 225.125 266.351C225.149 266.073 225.249 265.808 225.414 265.585C228.491 261.563 235.388 258.257 241.67 257.568Z" fill="#F5F5F5"/>
<path d="M237.619 13.1317C237.822 13.1063 238.018 13.0399 238.196 12.9365C243.899 9.42923 250.402 7.48731 257.067 7.30127C264.092 7.30127 267.913 10.1644 267.233 14.2249C267.193 14.4578 267.208 14.697 267.275 14.9233C267.343 15.1495 267.462 15.3564 267.623 15.5274C267.784 15.6983 267.982 15.8285 268.202 15.9074C268.421 15.9864 268.656 16.0119 268.887 15.9819C269.737 15.862 270.593 15.8011 271.451 15.7997C277.079 15.7997 279.335 18.806 276.489 22.5151C276.348 22.6973 276.195 22.8925 276.028 23.0747C275.89 23.224 275.723 23.3427 275.538 23.4233C275.352 23.5039 275.153 23.5447 274.951 23.5432H222.568C222.292 23.5481 222.021 23.4743 221.784 23.3301C221.547 23.1859 221.355 22.9772 221.23 22.7277C221.104 22.4781 221.05 22.1979 221.074 21.9187C221.097 21.6395 221.198 21.3727 221.363 21.1486C224.44 17.1271 231.337 13.8215 237.619 13.1317Z" fill="#F5F5F5"/>
<path d="M523.941 88.2118C523.505 88.212 523.081 88.0594 522.743 87.7796C522.404 87.4999 522.171 87.1101 522.082 86.6761C521.377 83.3965 517.442 81.2361 511.083 81.2361C509.664 81.2361 508.246 81.3317 506.839 81.5224C506.377 81.5824 505.909 81.4649 505.527 81.1929C505.145 80.9209 504.877 80.5139 504.775 80.0518C503.724 75.731 498.442 72.8809 489.968 72.8809C478.43 72.8809 464.79 78.0866 456.816 85.1794C456.548 85.4165 456.219 85.5702 455.867 85.6219C448.547 86.6761 440.714 90.5544 437.176 95.1745C436.812 95.6466 436.487 96.147 436.201 96.6711H530.236C533.8 91.9729 530.979 88.2118 523.941 88.2118Z" fill="#F5F5F5"/>
<path d="M88.0854 205.588C87.8177 205.591 87.5575 205.499 87.3493 205.328C87.1411 205.157 86.998 204.918 86.9445 204.651C86.5086 202.634 84.0984 201.307 80.2011 201.307C79.3435 201.312 78.4871 201.373 77.6371 201.489C77.3511 201.532 77.0597 201.463 76.8217 201.296C76.5838 201.13 76.417 200.877 76.3551 200.591C75.7013 197.988 72.5091 196.192 67.2658 196.192C59.8659 196.375 52.7304 199.022 46.9589 203.727C46.7886 203.868 46.5855 203.962 46.3692 204.001C41.8822 204.638 37.0875 207.02 34.9209 209.857C34.6896 210.139 34.4877 210.444 34.3184 210.768H92.0084C94.1237 207.892 92.393 205.588 88.0854 205.588Z" fill="#F5F5F5"/>
<path d="M158.25 268.968C145.815 203.558 214.953 136.221 199.569 113.667C184.185 91.1136 118.367 63.1978 144.61 110.921C170.852 158.645 141.443 185.533 106.406 271.87C71.3689 358.208 86.317 441.057 93.8039 460.227H194.441C200.415 417.631 178.198 374.033 158.25 268.968Z" fill="#E6E6E6"/>
<path d="M154.943 287.917C175.353 234.428 211.351 202.113 223.517 180.796C235.684 159.478 286.887 141.466 257.965 180.47C229.043 219.474 190.019 223.014 205.21 293.591C220.402 364.168 234.312 444.558 225.21 460.175H142.931C144.7 425.401 122.175 373.812 154.943 287.917Z" fill="#E6E6E6"/>
<path d="M283.079 147.154C295.809 145.345 354.064 184.232 317.821 190.101C281.579 195.971 258.208 150.694 283.079 147.154Z" fill="#E6E6E6"/>
<path d="M266.335 137.094C277.873 131.276 345.242 149.34 312.731 166.636C280.219 183.932 243.862 148.494 266.335 137.094Z" fill="#E6E6E6"/>
<path d="M256.836 125.771C269.656 126.044 321.09 173.924 284.386 173.833C247.682 173.742 231.721 125.237 256.836 125.771Z" fill="#E6E6E6"/>
<path d="M254.003 129.428C242.337 123.975 175.519 144.213 208.556 160.455C241.593 176.696 276.822 140.087 254.003 129.428Z" fill="#E6E6E6"/>
<path d="M271.052 154.728C287.718 156.888 347.895 226.229 300.231 221.01C252.566 215.791 238.515 150.498 271.052 154.728Z" fill="#E6E6E6"/>
<path d="M263.336 157.214C276.592 167.625 293.77 258.413 255.323 229.352C216.876 200.291 237.414 136.794 263.336 157.214Z" fill="#E6E6E6"/>
<path d="M231.964 154.181C219.144 159.244 184.748 226.567 221.708 212.824C258.668 199.081 257.053 144.264 231.964 154.181Z" fill="#E6E6E6"/>
<path d="M231.195 148.169C218.632 142.468 147.288 164.996 182.889 182.006C218.491 199.016 255.784 159.296 231.195 148.169Z" fill="#E6E6E6"/>
<path d="M140.931 65.4884C122.624 58.3825 22.9865 96.0071 74.8306 117.351C126.675 138.694 176.724 79.3877 140.931 65.4884Z" fill="#F0F0F0"/>
<path d="M169.224 56.3395C154.097 43.7025 47.7934 47.2294 90.3046 84.1772C132.816 121.125 198.8 81.0798 169.224 56.3395Z" fill="#F0F0F0"/>
<path d="M187.173 42.8044C167.943 38.7569 75.4591 92.0117 130.047 104.701C184.634 117.39 224.671 50.7431 187.173 42.8044Z" fill="#F0F0F0"/>
<path d="M190.134 49.2208C209.364 45.1603 301.847 98.4151 247.26 111.104C192.672 123.793 152.558 57.1596 190.134 49.2208Z" fill="#F0F0F0"/>
<path d="M156.262 80.9105C130.763 78.3857 17.947 160.584 90.5851 169.343C163.223 178.102 206.068 85.921 156.262 80.9105Z" fill="#F0F0F0"/>
<path d="M166.903 87.2879C143.686 98.207 87.5982 227.205 154.544 197.324C221.49 167.443 212.311 65.9314 166.903 87.2879Z" fill="#F0F0F0"/>
<path d="M214.555 93.6518C231.926 105.638 260.399 217.666 210.132 184.427C159.865 151.188 180.595 70.2259 214.555 93.6518Z" fill="#F0F0F0"/>
<path d="M217.734 84.9841C238.336 80.8845 336.807 139.111 278.181 152.021C219.555 164.931 177.428 93.0139 217.734 84.9841Z" fill="#F0F0F0"/>
<path d="M492.467 306.892C482.493 254.444 537.914 200.461 525.581 182.384C513.248 164.307 460.494 141.922 481.531 180.171C502.569 218.42 478.967 240.037 450.892 309.209C422.816 378.38 434.79 444.857 440.79 460.175H521.479C526.273 426.078 508.492 391.121 492.467 306.892Z" fill="#E6E6E6"/>
<path d="M449.508 322.08C433.15 279.197 404.305 253.286 394.523 236.185C384.742 219.084 343.731 204.651 366.909 235.925C390.088 267.198 421.356 270.035 409.215 326.622C397.075 383.208 385.883 447.656 393.19 460.214H459.149C457.675 432.299 475.777 390.939 449.508 322.08Z" fill="#E6E6E6"/>
<path d="M408.779 190.309C418.471 181.056 490.635 178.596 463.482 205.562C436.33 232.528 389.844 208.412 408.779 190.309Z" fill="#E6E6E6"/>
<path d="M388.689 191.975C394.984 180.067 462.622 154.403 445.328 188.774C428.034 223.145 376.407 215.258 388.689 191.975Z" fill="#E6E6E6"/>
<path d="M373.998 188.175C385.01 180.601 456.648 189.789 425.598 212.069C394.548 234.35 352.46 202.985 373.998 188.175Z" fill="#E6E6E6"/>
<path d="M373.755 192.977C360.678 195.463 316.065 253.143 353.614 246.818C391.164 240.493 399.331 188.136 373.755 192.977Z" fill="#E6E6E6"/>
<path d="M403.074 204.014C418.458 195.724 510.173 217.796 466.803 242.315C423.433 266.834 373.063 220.243 403.074 204.014Z" fill="#E6E6E6"/>
<path d="M398.009 210.794C415.368 211.575 483.391 277.87 433.764 276.647C384.138 275.423 364.088 209.284 398.009 210.794Z" fill="#E6E6E6"/>
<path d="M369.716 227.283C361.857 239.36 372.46 317.16 395.574 283.115C418.688 249.069 385.074 203.675 369.716 227.283Z" fill="#E6E6E6"/>
<path d="M365.511 222.676C351.538 225.448 304.514 287.917 344.602 280.603C384.69 273.289 392.856 217.145 365.511 222.676Z" fill="#E6E6E6"/>
<path d="M537.646 156.641C553.337 157.37 614.719 217.47 569.837 216.26C524.954 215.049 506.954 155.17 537.646 156.641Z" fill="#F0F0F0"/>
<path d="M519.748 140.711C534.85 136.339 611.872 173.508 568.951 186.847C526.029 200.187 490.198 149.262 519.748 140.711Z" fill="#F0F0F0"/>
<path d="M510.838 124.938C526.222 128.192 577.4 197.441 533.273 189.008C489.147 180.575 480.75 118.561 510.838 124.938Z" fill="#F0F0F0"/>
<path d="M506.621 128.673C493.801 119.446 408.997 128.465 445.085 155.561C481.173 182.657 531.684 146.711 506.621 128.673Z" fill="#F0F0F0"/>
<path d="M521.504 162.979C541.017 169.395 597.963 266.534 541.85 249.342C485.737 232.15 483.314 150.446 521.504 162.979Z" fill="#F0F0F0"/>
<path d="M511.672 164.203C525.287 179.82 525.774 292.824 486.032 249.095C446.29 205.367 485.045 133.736 511.672 164.203Z" fill="#F0F0F0"/>
<path d="M474.636 153.375C458.098 156.524 401.792 229.587 449.226 221.518C496.66 213.449 506.993 147.206 474.636 153.375Z" fill="#F0F0F0"/>
<path d="M475.046 145.97C461.213 136.248 370.447 146.985 409.459 175.551C448.47 204.118 502.121 164.984 475.046 145.97Z" fill="#F0F0F0"/>
<path d="M320.501 519C457.78 519 569.068 512.404 569.068 504.268C569.068 496.131 457.78 489.536 320.501 489.536C183.221 489.536 71.9336 496.131 71.9336 504.268C71.9336 512.404 183.221 519 320.501 519Z" fill="#F5F5F5"/>
<path d="M530.916 405.919C528.108 408.183 525.467 410.565 522.942 413.025C523.673 411.307 524.391 409.589 525.083 407.884C550.966 344.517 532.018 323.915 502.353 370.988C504.84 354.994 506.096 339.845 505.225 327.286C501.263 269.906 469.213 289.219 463.406 355.983C462.752 363.544 461.855 372.836 460.842 383.001C460.143 376.228 459.086 369.498 457.675 362.841C445.355 305.461 416.113 324.748 420.023 391.538C422.177 428.369 431.022 479.619 433.369 492.738C433.527 493.636 433.997 494.447 434.693 495.024C435.389 495.602 436.265 495.908 437.163 495.887H491.905C492.602 495.884 493.285 495.689 493.881 495.322C494.477 494.955 494.964 494.431 495.289 493.805C499.302 485.931 514.724 457.274 537.339 434.563C578.888 392.839 572.132 372.511 530.916 405.919Z" fill="#633C97"/>
<path opacity="0.2" d="M530.916 405.919C528.108 408.183 525.467 410.565 522.942 413.025C523.673 411.307 524.391 409.589 525.083 407.884C550.966 344.517 532.018 323.915 502.353 370.988C504.84 354.994 506.096 339.845 505.225 327.286C501.263 269.906 469.213 289.219 463.406 355.983C462.752 363.544 461.855 372.836 460.842 383.001C460.143 376.228 459.086 369.498 457.675 362.841C445.355 305.461 416.113 324.748 420.023 391.538C422.177 428.369 431.022 479.619 433.369 492.738C433.527 493.636 433.997 494.447 434.693 495.024C435.389 495.602 436.265 495.908 437.163 495.887H491.905C492.602 495.884 493.285 495.689 493.881 495.322C494.477 494.955 494.964 494.431 495.289 493.805C499.302 485.931 514.724 457.274 537.339 434.563C578.888 392.839 572.132 372.511 530.916 405.919Z" fill="black"/>
<path d="M386.856 447.435C387.243 448.977 387.811 450.467 388.548 451.872C399.304 472.578 423.611 450.063 431.29 429.019C417.329 425.453 398.869 427.444 390.664 434.993L398.458 409.472C398.843 411.015 399.411 412.505 400.151 413.909C410.894 434.628 435.2 412.1 442.88 391.056C428.919 387.49 410.458 389.495 402.253 397.03L410.048 371.522C410.432 373.061 411.001 374.547 411.74 375.947C422.483 396.665 446.79 374.138 454.482 353.093C440.508 349.54 422.047 351.532 413.842 359.067L421.637 333.559C422.024 335.102 422.592 336.592 423.329 337.997C434.072 358.703 458.379 336.188 466.071 315.143C452.097 311.577 433.649 313.569 425.444 321.117L433.226 295.596C433.613 297.139 434.181 298.629 434.918 300.034C445.674 320.74 469.968 298.225 477.66 277.181C463.699 273.615 445.238 275.606 437.034 283.154L444.854 257.633C445.239 259.176 445.807 260.667 446.546 262.071C457.289 282.79 481.596 260.262 489.275 239.218C475.314 235.652 456.853 237.643 448.649 245.191L451.431 236.081C467.161 230.875 454.892 208.933 440.854 199.511C433.495 214.009 433.034 237.63 447.149 236.94L439.893 260.587C437.329 249.655 423.227 237.409 409.714 232.32C404.33 254.093 411.817 286.616 432.226 275.71C433.61 274.977 434.901 274.077 436.072 273.029L428.29 298.537C425.726 287.605 411.624 275.371 398.112 270.283C392.715 292.056 400.215 324.579 420.624 313.673C422.005 312.935 423.296 312.035 424.47 310.992L416.65 336.513C414.086 325.581 399.984 313.334 386.472 308.259C381.087 330.019 388.587 362.555 408.984 351.649C410.367 350.91 411.659 350.006 412.83 348.955L405.112 374.476C402.548 363.544 388.446 351.297 374.934 346.222C369.549 367.982 377.049 400.518 397.445 389.599C398.831 388.869 400.123 387.969 401.292 386.918L393.574 412.439C391.01 401.507 376.908 389.26 363.396 384.185C358.011 405.945 365.498 438.481 385.907 427.562C387.291 426.829 388.583 425.928 389.753 424.881L381.972 450.389C379.408 439.457 365.306 427.223 351.794 422.135C346.396 443.908 353.896 476.431 374.305 465.524C375.689 464.792 376.981 463.891 378.151 462.844L370.459 487.87C370.308 488.365 370.357 488.901 370.595 489.36C370.833 489.819 371.241 490.163 371.729 490.317C372.216 490.47 372.745 490.421 373.197 490.179C373.649 489.938 373.987 489.524 374.139 489.028L386.856 447.435Z" fill="#633C97"/>
<path opacity="0.7" d="M386.856 447.435C387.243 448.977 387.811 450.467 388.548 451.872C399.304 472.578 423.611 450.063 431.29 429.019C417.329 425.453 398.869 427.444 390.664 434.993L398.458 409.472C398.843 411.015 399.411 412.505 400.151 413.909C410.894 434.628 435.2 412.1 442.88 391.056C428.919 387.49 410.458 389.495 402.253 397.03L410.048 371.522C410.432 373.061 411.001 374.547 411.74 375.947C422.483 396.665 446.79 374.138 454.482 353.093C440.508 349.54 422.047 351.532 413.842 359.067L421.637 333.559C422.024 335.102 422.592 336.592 423.329 337.997C434.072 358.703 458.379 336.188 466.071 315.143C452.097 311.577 433.649 313.569 425.444 321.117L433.226 295.596C433.613 297.139 434.181 298.629 434.918 300.034C445.674 320.74 469.968 298.225 477.66 277.181C463.699 273.615 445.238 275.606 437.034 283.154L444.854 257.633C445.239 259.176 445.807 260.667 446.546 262.071C457.289 282.79 481.596 260.262 489.275 239.218C475.314 235.652 456.853 237.643 448.649 245.191L451.431 236.081C467.161 230.875 454.892 208.933 440.854 199.511C433.495 214.009 433.034 237.63 447.149 236.94L439.893 260.587C437.329 249.655 423.227 237.409 409.714 232.32C404.33 254.093 411.817 286.616 432.226 275.71C433.61 274.977 434.901 274.077 436.072 273.029L428.29 298.537C425.726 287.605 411.624 275.371 398.112 270.283C392.715 292.056 400.215 324.579 420.624 313.673C422.005 312.935 423.296 312.035 424.47 310.992L416.65 336.513C414.086 325.581 399.984 313.334 386.472 308.259C381.087 330.019 388.587 362.555 408.984 351.649C410.367 350.91 411.659 350.006 412.83 348.955L405.112 374.476C402.548 363.544 388.446 351.297 374.934 346.222C369.549 367.982 377.049 400.518 397.445 389.599C398.831 388.869 400.123 387.969 401.292 386.918L393.574 412.439C391.01 401.507 376.908 389.26 363.396 384.185C358.011 405.945 365.498 438.481 385.907 427.562C387.291 426.829 388.583 425.928 389.753 424.881L381.972 450.389C379.408 439.457 365.306 427.223 351.794 422.135C346.396 443.908 353.896 476.431 374.305 465.524C375.689 464.792 376.981 463.891 378.151 462.844L370.459 487.87C370.308 488.365 370.357 488.901 370.595 489.36C370.833 489.819 371.241 490.163 371.729 490.317C372.216 490.47 372.745 490.421 373.197 490.179C373.649 489.938 373.987 489.524 374.139 489.028L386.856 447.435Z" fill="white"/>
<path d="M311.052 485.502C272.028 459.187 151.2 369.999 108.163 247.963C108.522 257.802 112.009 269.945 117.97 283.584C103.801 269.85 91.0555 254.678 79.9333 238.307C89.7919 266.157 106.996 285.536 118.534 296.169C105.35 286.204 93.0279 275.114 81.7024 263.021C99.0864 295.258 125.675 312.788 136.739 319.048L136.841 319.217C113.665 307.249 91.892 292.668 71.9336 275.749C84.4472 294.553 100.408 310.738 118.945 323.421C107.328 316.97 96.2146 309.626 85.7023 301.452C101.086 323.785 121.701 340.613 139.008 352.078C116.144 340.193 94.1934 326.576 73.3438 311.343C107.253 358.742 168.212 382.766 187.711 389.495C149.81 377.178 113.185 361.133 78.3564 341.589C99.9325 365.249 127.803 381.933 153.135 393.477C134.362 386.766 116.042 378.814 98.2915 369.674C126.38 399.021 169.289 419.584 200.493 431.7C176.975 425.109 154.231 415.946 132.662 404.37C152.879 429.097 181.763 443.088 207.262 450.987C186.857 446.024 166.851 439.498 147.418 431.466C173.058 457.104 208.851 469.038 237.363 474.57C216.248 471.967 190.211 467.386 165.007 459.121C212.672 500.624 298.899 496.043 298.899 496.043L308.732 495.015C309.783 494.906 310.775 494.471 311.573 493.768C312.371 493.065 312.936 492.129 313.19 491.087C313.444 490.046 313.375 488.951 312.992 487.951C312.61 486.951 311.932 486.096 311.052 485.502Z" fill="#633C97"/>
<path d="M369.921 435.149C364.69 423.826 358.844 411.97 352.434 399.711L339.73 413.74L347.883 391.056C341.986 380.029 335.657 368.728 328.897 357.154L315.051 372.654L324.756 350.126C317.372 337.723 309.833 325.594 302.206 313.868L291.168 329.758L294.744 302.506C287.762 292.043 280.762 281.952 273.745 272.235L263.092 290.156L267.438 263.58C258.233 251.113 249.105 239.439 240.221 228.702L230.349 241.716L234.08 221.362C223.375 208.803 213.081 197.728 203.466 188.461L199.338 200.968L199.081 184.336C180.198 166.819 164.224 156.771 153.455 156.771C142.943 156.771 138.674 166.337 139.93 183.087L170.019 200.721L140.84 191.077C142.953 203.417 146.097 215.551 150.237 227.348L186.454 246.662L154.57 239.556C159.532 252.857 165.673 267.394 172.929 282.894L209.145 299.136L177.685 292.889C183.762 305.409 190.505 318.488 197.902 331.932L236.029 344.816L204.735 344.204C207.222 348.603 209.786 353.037 212.427 357.505C215.47 362.711 218.547 367.873 221.657 372.992L258.964 385.785L226.709 381.243C232.572 390.735 238.49 399.997 244.464 409.029L282.924 423.423L251.387 419.388C259.707 431.648 268.053 443.387 276.322 454.527L313.667 463.715L282.27 462.414C288.527 470.613 294.706 478.422 300.808 485.84C306.039 492.178 313.782 496.251 320.666 496.251H376.908C386.638 496.251 391.561 488.26 387.946 478.37C383.792 467.008 378.754 454.709 372.882 441.669L357.267 453.382L369.921 435.149Z" fill="#633C97"/>
<path opacity="0.4" d="M369.921 435.149C364.69 423.826 358.844 411.97 352.434 399.711L339.73 413.74L347.883 391.056C341.986 380.029 335.657 368.728 328.897 357.154L315.051 372.654L324.756 350.126C317.372 337.723 309.833 325.594 302.206 313.868L291.168 329.758L294.744 302.506C287.762 292.043 280.762 281.952 273.745 272.235L263.092 290.156L267.438 263.58C258.233 251.113 249.105 239.439 240.221 228.702L230.349 241.716L234.08 221.362C223.375 208.803 213.081 197.728 203.466 188.461L199.338 200.968L199.081 184.336C180.198 166.819 164.224 156.771 153.455 156.771C142.943 156.771 138.674 166.337 139.93 183.087L170.019 200.721L140.84 191.077C142.953 203.417 146.097 215.551 150.237 227.348L186.454 246.662L154.57 239.556C159.532 252.857 165.673 267.394 172.929 282.894L209.145 299.136L177.685 292.889C183.762 305.409 190.505 318.488 197.902 331.932L236.029 344.816L204.735 344.204C207.222 348.603 209.786 353.037 212.427 357.505C215.47 362.711 218.547 367.873 221.657 372.992L258.964 385.785L226.709 381.243C232.572 390.735 238.49 399.997 244.464 409.029L282.924 423.423L251.387 419.388C259.707 431.648 268.053 443.387 276.322 454.527L313.667 463.715L282.27 462.414C288.527 470.613 294.706 478.422 300.808 485.84C306.039 492.178 313.782 496.251 320.666 496.251H376.908C386.638 496.251 391.561 488.26 387.946 478.37C383.792 467.008 378.754 454.709 372.882 441.669L357.267 453.382L369.921 435.149Z" fill="white"/>
<path d="M366.346 186.093C368.41 193.186 370.397 200.409 372.32 207.501C374.243 214.594 376.166 221.817 378.141 228.767L378.871 231.214C378.871 231.214 378.73 231.122 378.756 231.214C379.219 231.802 379.83 232.252 380.525 232.515C383.299 233.674 386.221 234.424 389.204 234.74C392.629 235.177 396.074 235.438 399.524 235.521C401.281 235.521 403.063 235.625 404.845 235.625L410.152 235.56L411.524 243.668C404.052 245.909 396.326 247.16 388.538 247.39C384.159 247.563 379.782 246.991 375.589 245.699C372.766 244.82 370.197 243.257 368.103 241.144C366.804 239.788 365.781 238.188 365.09 236.432L364 233.608C361.308 226.398 359 219.292 356.77 212.109C354.539 204.925 352.501 197.793 350.629 190.466L366.346 186.093Z" fill="#CE7A63"/>
<path d="M347.065 182.384C342.321 192.093 357.5 224.03 357.5 224.03L376.987 216.221C376.987 216.221 376.217 201.021 371.5 187.85C366.525 173.899 352.334 171.595 347.065 182.384Z" fill="#263238"/>
<path opacity="0.2" d="M346.577 183.62C351.179 182.071 355.833 184.414 359.73 193.329C363.628 202.243 365.922 216.624 365.794 220.659L357.5 223.99C357.5 223.99 343.308 194.435 346.577 183.62Z" fill="black"/>
<path d="M407.74 236.667L413.599 231.839C414.327 231.239 415.169 230.799 416.072 230.544C416.975 230.289 417.92 230.226 418.848 230.357C419.777 230.489 420.668 230.814 421.468 231.31C422.267 231.807 422.958 232.465 423.496 233.244C424.182 234.244 424.596 235.41 424.698 236.624C424.8 237.838 424.585 239.058 424.076 240.161C423.567 241.265 422.781 242.213 421.798 242.911C420.814 243.608 419.666 244.031 418.471 244.137C415.6 244.337 412.716 244.228 409.868 243.812L407.74 236.667Z" fill="#CE7A63"/>
<path d="M361.141 176.319C361.141 176.319 370.115 211.887 350.167 273.614L290.9 266.313C291.529 258.036 300.426 221.882 299.874 182.54C299.846 180.566 300.212 178.608 300.95 176.782C301.689 174.956 302.784 173.302 304.171 171.918C305.558 170.535 307.206 169.452 309.017 168.734C310.828 168.016 312.764 167.679 314.707 167.742C316.246 167.742 317.797 167.873 319.348 167.99C327.797 168.529 336.208 169.563 344.539 171.087C350.198 172.392 355.749 174.141 361.141 176.319Z" fill="#263238"/>
<path opacity="0.2" d="M310.361 172.259C308.492 171.295 306.328 171.103 304.323 171.725C302.866 173.106 301.711 174.782 300.934 176.646C300.156 178.509 299.774 180.517 299.81 182.54C299.926 189.984 299.695 197.324 299.246 204.365C302.137 202.473 304.88 200.359 307.451 198.04C318.271 188.332 320.156 178.284 310.361 172.259Z" fill="black"/>
<path d="M325.219 139.554C325.821 147.974 325.603 163.24 319.283 168.042C326.642 172.35 330.257 178.636 338.654 180.198C345.192 181.421 345.795 174.862 344.475 171.088C335.693 167.782 336.782 161.001 339.077 154.807L325.219 139.554Z" fill="#CE7A63"/>
<path opacity="0.2" d="M330.872 145.735L339.076 154.845C338.519 156.287 338.09 157.777 337.794 159.296C334.397 158.359 330.102 153.934 330.192 150.186C330.151 148.673 330.382 147.165 330.872 145.735Z" fill="black"/>
<path d="M325.732 126.994C325.078 138.213 324.129 144.759 328.988 151.162C336.295 160.793 350.461 157.357 354.41 146.555C357.961 136.833 358.448 120.11 348.231 114.357C345.985 113.077 343.453 112.4 340.877 112.392C338.301 112.383 335.766 113.043 333.511 114.31C331.257 115.576 329.359 117.406 327.998 119.626C326.636 121.846 325.856 124.382 325.732 126.994Z" fill="#CE7A63"/>
<path d="M325.257 136.703C325.257 136.703 330.744 134.92 330.129 127.164C331.744 122.843 350.538 119.889 350.538 119.889C350.538 119.889 351.82 121.034 354.564 118.431C360.73 112.64 350.462 105.885 340.565 105.273C341.025 106.177 341.547 107.047 342.129 107.876C342.129 107.876 328.77 105.69 320.796 110.115C321.697 110.445 322.646 110.617 323.604 110.622C319.882 112.985 316.44 115.776 313.348 118.939C320.014 122.765 322.322 123.376 322.322 123.376L322.437 131.107L325.257 136.703Z" fill="#263238"/>
<path d="M321.578 123.754C321.001 126.228 321.189 128.823 322.116 131.185C322.298 131.553 322.615 131.834 322.998 131.967C323.381 132.101 323.801 132.077 324.167 131.901C327.654 130.235 335.026 125.979 343.461 124.275C346.906 123.552 350.446 123.415 353.935 123.871C354.192 123.903 354.452 123.87 354.693 123.774C354.934 123.679 355.148 123.524 355.316 123.324C355.484 123.125 355.6 122.886 355.654 122.629C355.709 122.372 355.699 122.106 355.628 121.854C355.12 119.983 354.287 118.22 353.166 116.648C353.022 116.46 352.842 116.303 352.637 116.187C352.433 116.071 352.207 115.998 351.974 115.971C343.192 114.956 336.705 115.711 322.488 122.544C322.258 122.665 322.057 122.837 321.9 123.046C321.743 123.255 321.633 123.497 321.578 123.754Z" fill="#633C97"/>
<path d="M319.309 138.669C320.505 141.223 322.648 143.193 325.271 144.148C328.745 145.449 330.732 142.287 329.963 138.825C329.27 135.701 326.617 131.303 323.027 131.563C319.437 131.823 317.938 135.519 319.309 138.669Z" fill="#CE7A63"/>
<path d="M327.038 273.602C327.038 273.602 303.142 352.443 288.989 383.898C274.271 416.604 225.53 488.183 225.53 488.183L216.773 482.365C216.773 482.365 250.105 410.07 263.784 377.625C269.489 357.323 294.027 268.162 294.027 268.162L327.038 273.602Z" fill="#CE7A63"/>
<path d="M229.261 484.292L218.89 477.147C218.698 477.009 218.465 476.943 218.23 476.962C217.996 476.981 217.775 477.084 217.608 477.251L210.249 484.331C210.072 484.506 209.936 484.719 209.851 484.955C209.766 485.19 209.734 485.442 209.757 485.692C209.781 485.941 209.859 486.183 209.986 486.397C210.113 486.612 210.286 486.796 210.493 486.934C214.159 489.368 215.339 490.539 219.902 493.675C222.71 495.602 231.441 503.931 236.133 504.243C240.825 504.555 241.261 500.794 238.415 499.779C230.107 496.825 231.248 489.55 230.351 485.906C230.198 485.249 229.81 484.673 229.261 484.292Z" fill="#263238"/>
<path d="M234.466 488.157C234.519 488.087 234.566 488.013 234.607 487.936C234.692 487.795 234.737 487.633 234.737 487.467C234.737 487.302 234.692 487.14 234.607 486.999C233.941 485.776 229.992 485.567 229.197 485.541C229.137 485.538 229.077 485.554 229.024 485.585C228.972 485.617 228.931 485.664 228.905 485.719C228.879 485.775 228.869 485.837 228.878 485.898C228.887 485.959 228.913 486.016 228.954 486.062C229.941 487.168 231.813 488.99 233.287 488.834C233.52 488.816 233.747 488.747 233.951 488.63C234.155 488.513 234.331 488.351 234.466 488.157ZM230.005 486.218C231.723 486.348 233.851 486.726 234.094 487.311C234.094 487.376 234.159 487.454 234.094 487.624C234.014 487.777 233.898 487.908 233.758 488.008C233.618 488.107 233.456 488.172 233.287 488.196C232.505 488.339 231.313 487.546 230.005 486.218Z" fill="white"/>
<path d="M234.145 484.539C234.197 484.464 234.244 484.386 234.286 484.305C234.366 484.108 234.377 483.889 234.316 483.685C234.255 483.481 234.127 483.305 233.953 483.186C233.797 483.046 233.613 482.941 233.414 482.878C233.215 482.815 233.006 482.796 232.799 482.821C231.107 482.978 229.068 485.541 228.953 485.659C228.918 485.703 228.895 485.756 228.888 485.813C228.88 485.869 228.888 485.927 228.91 485.979C228.933 486.032 228.969 486.077 229.015 486.11C229.061 486.143 229.115 486.162 229.171 486.166C230.427 486.296 233.324 485.606 234.145 484.539ZM229.914 485.528C230.672 484.561 231.693 483.842 232.85 483.459C232.974 483.442 233.099 483.451 233.219 483.487C233.338 483.523 233.448 483.584 233.542 483.667C233.786 483.876 233.722 483.993 233.709 484.058C233.44 484.695 231.325 485.411 229.914 485.528Z" fill="white"/>
<path d="M349.782 279.302C349.782 279.302 382.127 321.624 393.665 353.705C399.267 369.322 352.884 437.114 352.884 437.114L347.115 428.486C345.513 429.227 360.576 381.569 371.871 363.297C351.615 333.429 319.309 298.225 319.309 298.225L349.782 279.302Z" fill="#CE7A63"/>
<path d="M355.269 434.291L347.166 424.569C347.022 424.396 346.824 424.278 346.605 424.235C346.385 424.193 346.158 424.228 345.961 424.335L336.987 429.137C336.765 429.256 336.573 429.425 336.425 429.631C336.276 429.837 336.176 430.074 336.132 430.325C336.087 430.575 336.1 430.833 336.168 431.079C336.236 431.324 336.358 431.55 336.526 431.74C339.41 435.072 340.987 436.556 344.551 440.85C346.743 443.453 354.179 452.941 357.204 456.559C360.23 460.177 364.166 457.626 363.243 455.869C359.127 447.969 355.82 439.939 355.935 436.191C355.953 435.496 355.716 434.818 355.269 434.291Z" fill="#263238"/>
<path d="M359.242 439.445C359.316 439.391 359.385 439.33 359.447 439.263C359.571 439.156 359.662 439.017 359.712 438.861C359.762 438.704 359.768 438.537 359.729 438.378C359.422 437.011 355.665 435.775 354.909 435.488C354.851 435.471 354.789 435.471 354.73 435.487C354.671 435.503 354.618 435.535 354.576 435.579C354.544 435.632 354.527 435.693 354.527 435.755C354.527 435.817 354.544 435.878 354.576 435.931C355.23 437.232 356.563 439.523 358.024 439.77C358.238 439.805 358.457 439.793 358.667 439.737C358.877 439.681 359.073 439.582 359.242 439.445ZM355.473 436.347C357.089 436.959 358.973 437.883 359.127 438.521C359.127 438.521 359.127 438.677 359.012 438.807C358.896 438.935 358.752 439.033 358.591 439.092C358.43 439.151 358.258 439.17 358.088 439.145C357.332 439.015 356.396 437.987 355.473 436.347Z" fill="white"/>
<path d="M359.898 435.8C359.968 435.746 360.032 435.685 360.09 435.618C360.223 435.453 360.296 435.246 360.296 435.032C360.296 434.819 360.223 434.612 360.09 434.447C359.976 434.269 359.827 434.117 359.653 434.001C359.479 433.884 359.283 433.806 359.077 433.77C357.41 433.471 354.757 435.384 354.641 435.462C354.597 435.497 354.562 435.542 354.539 435.595C354.517 435.647 354.508 435.704 354.513 435.761C354.521 435.819 354.544 435.874 354.58 435.92C354.616 435.966 354.664 436.001 354.718 436.022C355.859 436.477 358.859 436.607 359.898 435.8ZM355.564 435.605C356.548 434.87 357.728 434.452 358.949 434.408C359.07 434.427 359.186 434.472 359.29 434.539C359.394 434.607 359.483 434.695 359.551 434.798C359.718 435.058 359.641 435.163 359.551 435.215C359.18 435.761 356.949 435.878 355.564 435.605Z" fill="white"/>
<path d="M350.167 273.601C350.167 273.601 366.731 297.313 376.012 318.228C369.602 320.7 356.141 331.919 353.359 338.283C331.565 316.236 309.771 292.602 309.771 292.602L326.207 270.647L350.167 273.601Z" fill="#263238"/>
<path opacity="0.2" d="M322.193 290.754L320.783 304.433C325.18 309.105 330.603 314.844 336.501 320.987C332.039 304.836 322.193 290.754 322.193 290.754Z" fill="black"/>
<path d="M337.371 272.04C337.371 272.04 310.629 328.119 305.731 339.636C300.603 337.268 282.937 330.826 276.822 331.047C276.899 324.306 290.924 266.313 290.924 266.313L337.371 272.04Z" fill="#263238"/>
<path d="M342.013 132.161C341.91 133.072 342.295 133.866 342.872 133.931C343.449 133.996 344.025 133.332 344.154 132.421C344.282 131.51 343.872 130.716 343.295 130.651C342.718 130.586 342.115 131.25 342.013 132.161Z" fill="#263238"/>
<path d="M352.116 133.411C352 134.309 352.398 135.103 352.975 135.181C353.551 135.259 354.128 134.569 354.257 133.671C354.385 132.773 353.975 131.966 353.398 131.888C352.821 131.81 352.218 132.5 352.116 133.411Z" fill="#263238"/>
<path d="M348.846 133.463C349.583 136.364 350.708 139.15 352.192 141.74C350.436 143.041 347.82 142.039 347.82 142.039L348.846 133.463Z" fill="#BA4D3C"/>
<path d="M344.949 144.226C345.016 144.226 345.081 144.201 345.131 144.155C345.181 144.109 345.212 144.046 345.218 143.979C345.222 143.909 345.201 143.84 345.159 143.784C345.116 143.729 345.055 143.692 344.987 143.679C343.873 143.568 342.8 143.192 341.856 142.581C340.912 141.971 340.122 141.143 339.552 140.165C339.519 140.102 339.464 140.053 339.397 140.029C339.331 140.005 339.258 140.007 339.193 140.035C339.13 140.068 339.083 140.125 339.062 140.193C339.04 140.262 339.046 140.336 339.077 140.4C339.678 141.465 340.523 142.368 341.541 143.032C342.558 143.696 343.719 144.101 344.923 144.213L344.949 144.226Z" fill="#263238"/>
<path d="M339.423 128.478C339.494 128.479 339.565 128.466 339.631 128.439C339.697 128.412 339.757 128.372 339.808 128.322C340.255 127.823 340.813 127.44 341.434 127.202C342.056 126.965 342.724 126.88 343.384 126.955C343.522 126.978 343.663 126.947 343.777 126.866C343.892 126.786 343.972 126.664 344 126.526C344.026 126.388 343.998 126.245 343.921 126.128C343.844 126.011 343.725 125.929 343.59 125.901C342.757 125.786 341.909 125.878 341.119 126.168C340.328 126.458 339.619 126.938 339.051 127.567C339 127.617 338.96 127.676 338.932 127.742C338.905 127.808 338.891 127.879 338.891 127.951C338.891 128.023 338.905 128.094 338.932 128.159C338.96 128.225 339 128.285 339.051 128.335C339.153 128.428 339.286 128.479 339.423 128.478Z" fill="#263238"/>
<path d="M357.024 130.444H357.191C357.325 130.396 357.435 130.297 357.497 130.168C357.56 130.039 357.569 129.89 357.524 129.754C357.268 128.943 356.824 128.207 356.231 127.605C355.638 127.003 354.913 126.553 354.114 126.292C354.047 126.275 353.977 126.271 353.908 126.281C353.839 126.291 353.773 126.315 353.714 126.351C353.654 126.388 353.602 126.436 353.561 126.493C353.52 126.549 353.49 126.614 353.473 126.682C353.454 126.75 353.449 126.821 353.457 126.891C353.465 126.96 353.488 127.028 353.522 127.088C353.557 127.149 353.604 127.202 353.659 127.244C353.715 127.286 353.778 127.317 353.845 127.333C354.477 127.545 355.05 127.908 355.516 128.39C355.982 128.872 356.328 129.46 356.525 130.105C356.565 130.206 356.635 130.292 356.724 130.352C356.813 130.412 356.917 130.444 357.024 130.444Z" fill="#263238"/>
<path d="M309.771 184.908C303.041 187.303 296.118 189.815 289.426 192.418C286.067 193.719 282.759 195.021 279.541 196.478C276.462 197.787 273.465 199.286 270.567 200.968C270.247 201.163 269.926 201.346 269.67 201.541C269.405 201.705 269.148 201.883 268.901 202.074L268.593 202.296C268.564 202.289 268.533 202.289 268.503 202.296C268.399 202.369 268.304 202.457 268.221 202.556C267.533 203.439 266.996 204.433 266.632 205.497C265.584 208.591 264.862 211.789 264.478 215.037C263.965 218.485 263.657 222.064 263.414 225.695C263.311 227.504 263.17 229.326 263.093 231.161L262.914 236.614L254.901 237.63C253.053 229.96 252.076 222.1 251.991 214.204C251.922 209.916 252.378 205.636 253.35 201.463C253.951 198.883 254.974 196.424 256.376 194.188C256.821 193.514 257.309 192.871 257.837 192.262C258.094 191.949 258.427 191.624 258.735 191.311L259.478 190.635C259.965 190.179 260.44 189.802 260.901 189.424C261.363 189.047 261.824 188.722 262.286 188.383C265.646 186.017 269.182 183.92 272.862 182.11C276.349 180.314 279.849 178.74 283.362 177.217C290.4 174.211 297.4 171.582 304.72 169.226L309.771 184.908Z" fill="#CE7A63"/>
<path d="M262.914 232.958L264.349 243.07C264.469 244.016 264.395 244.977 264.132 245.893C263.869 246.809 263.423 247.66 262.821 248.392C262.219 249.125 261.475 249.724 260.635 250.152C259.796 250.58 258.878 250.827 257.939 250.878C256.74 250.948 255.544 250.696 254.472 250.147C253.4 249.598 252.489 248.772 251.831 247.752C251.173 246.732 250.792 245.554 250.725 244.337C250.659 243.119 250.91 241.906 251.452 240.818C252.605 238.413 254.034 236.155 255.709 234.09L262.914 232.958Z" fill="#CE7A63"/>
<path d="M322.193 170.619C315.501 161.769 282.631 175.603 282.631 175.603L289.246 197.728C296.435 197.625 303.547 196.215 310.245 193.563C323.834 188.487 329.18 179.898 322.193 170.619Z" fill="#263238"/>
<path d="M290.245 262.136L289.335 266.964C289.28 267.287 289.347 267.62 289.523 267.895C289.699 268.17 289.971 268.367 290.284 268.448C294.514 269.437 309.604 272.795 326.629 274.955C341.936 276.894 349.012 276.595 351.512 276.348C351.825 276.309 352.113 276.155 352.321 275.915C352.529 275.675 352.643 275.366 352.64 275.046V270.608C352.641 270.276 352.516 269.957 352.292 269.715C352.068 269.473 351.762 269.327 351.435 269.307C346.628 269.138 327.334 268.005 291.733 261.095C291.399 261.034 291.056 261.109 290.778 261.304C290.499 261.499 290.308 261.798 290.245 262.136Z" fill="#633C97"/>
</svg>
